<?xml version="1.0" encoding="UTF-8" standalone="no"?>
<!DOCTYPE svg PUBLIC "-//W3C//DTD SVG 1.1//EN"
 "http://www.w3.org/Graphics/SVG/1.1/DTD/svg11.dtd">
<!-- Generated by graphviz version 2.43.0 (0)
 -->
<!-- Title: G Pages: 1 -->
<svg width="1227pt" height="1592pt"
 viewBox="0.00 0.00 1226.80 1592.35" xmlns="http://www.w3.org/2000/svg" xmlns:xlink="http://www.w3.org/1999/xlink">
<g id="graph0" class="graph" transform="scale(1 1) rotate(0) translate(14.4 1577.95)">
<title>G</title>
<polygon fill="white" stroke="transparent" points="-14.4,14.4 -14.4,-1577.95 1212.4,-1577.95 1212.4,14.4 -14.4,14.4"/>
<text text-anchor="middle" x="599" y="-7.8" font-family="Helvetica,sans-Serif" font-size="14.00">Integrated Hospital Management System for Multiple Facilities</text>
<!-- Hospital -->
<g id="node1" class="node">
<title>Hospital</title>
<polygon fill="none" stroke="black" points="7,-130.5 7,-151.5 169,-151.5 169,-130.5 7,-130.5"/>
<text text-anchor="start" x="59.5" y="-138.3" font-family="Helvetica,sans-Serif" font-style="italic" font-size="14.00">Hospital</text>
<polygon fill="none" stroke="black" points="7,-103.5 7,-130.5 169,-130.5 169,-103.5 7,-103.5"/>
<text text-anchor="start" x="13" y="-114.3" font-family="Helvetica,sans-Serif" font-size="14.00">PK hospital_id </text>
<text text-anchor="start" x="114" y="-114.3" font-family="Helvetica,sans-Serif" font-size="14.00" fill="#999999">int</text>
<polygon fill="none" stroke="black" points="7,-76.5 7,-103.5 169,-103.5 169,-76.5 7,-76.5"/>
<text text-anchor="start" x="13" y="-87.3" font-family="Helvetica,sans-Serif" font-size="14.00">name </text>
<text text-anchor="start" x="57" y="-87.3" font-family="Helvetica,sans-Serif" font-size="14.00" fill="#999999">varchar(100)</text>
<polygon fill="none" stroke="black" points="7,-49.5 7,-76.5 169,-76.5 169,-49.5 7,-49.5"/>
<text text-anchor="start" x="13" y="-60.3" font-family="Helvetica,sans-Serif" font-size="14.00">location </text>
<text text-anchor="start" x="72" y="-60.3" font-family="Helvetica,sans-Serif" font-size="14.00" fill="#999999">varchar(200)</text>
<polygon fill="none" stroke="black" points="7,-22.5 7,-49.5 169,-49.5 169,-22.5 7,-22.5"/>
<text text-anchor="start" x="13" y="-33.3" font-family="Helvetica,sans-Serif" font-size="14.00">state </text>
<text text-anchor="start" x="53" y="-33.3" font-family="Helvetica,sans-Serif" font-size="14.00" fill="#999999">varchar(50)</text>
</g>
<!-- Department -->
<g id="node2" class="node">
<title>Department</title>
<polygon fill="none" stroke="black" points="262,-212.5 262,-233.5 421,-233.5 421,-212.5 262,-212.5"/>
<text text-anchor="start" x="299.5" y="-220.3" font-family="Helvetica,sans-Serif" font-style="italic" font-size="14.00">Department</text>
<polygon fill="none" stroke="black" points="262,-185.5 262,-212.5 421,-212.5 421,-185.5 262,-185.5"/>
<text text-anchor="start" x="268" y="-196.3" font-family="Helvetica,sans-Serif" font-size="14.00">PK department_id </text>
<text text-anchor="start" x="396" y="-196.3" font-family="Helvetica,sans-Serif" font-size="14.00" fill="#999999">int</text>
<polygon fill="none" stroke="black" points="262,-158.5 262,-185.5 421,-185.5 421,-158.5 262,-158.5"/>
<text text-anchor="start" x="268" y="-169.3" font-family="Helvetica,sans-Serif" font-size="14.00">name </text>
<text text-anchor="start" x="312" y="-169.3" font-family="Helvetica,sans-Serif" font-size="14.00" fill="#999999">varchar(50)</text>
<polygon fill="none" stroke="black" points="262,-131.5 262,-158.5 421,-158.5 421,-131.5 262,-131.5"/>
<text text-anchor="start" x="268" y="-142.3" font-family="Helvetica,sans-Serif" font-size="14.00">capacity </text>
<text text-anchor="start" x="331" y="-142.3" font-family="Helvetica,sans-Serif" font-size="14.00" fill="#999999">int</text>
<polygon fill="none" stroke="black" points="262,-104.5 262,-131.5 421,-131.5 421,-104.5 262,-104.5"/>
<text text-anchor="start" x="268" y="-115.3" font-family="Helvetica,sans-Serif" font-size="14.00">hospital_id </text>
<text text-anchor="start" x="347" y="-115.3" font-family="Helvetica,sans-Serif" font-size="14.00" fill="#999999">int</text>
</g>
<!-- Hospital&#45;&gt;Department -->
<g id="edge1" class="edge">
<title>Hospital:hospital_id&#45;&gt;Department:hospital_id</title>
<path fill="none" stroke="black" d="M179.37,-117.5C209.48,-117.5 221.73,-117.5 251.96,-117.5"/>
<polyline fill="none" stroke="black" points="170,-117.5 174.5,-117.5 "/>
<polygon fill="black" stroke="black" points="175.4,-122 175.4,-113 177.2,-113 177.2,-122 175.4,-122"/>
<polyline fill="none" stroke="black" points="174.5,-117.5 179,-117.5 "/>
<polygon fill="black" stroke="black" points="252,-117.5 261,-121.55 256.5,-117.5 261,-117.5 261,-117.5 261,-117.5 256.5,-117.5 261,-113.45 252,-117.5 252,-117.5"/>
</g>
<!-- DepartmentCoordinator -->
<g id="node3" class="node">
<title>DepartmentCoordinator</title>
<polygon fill="none" stroke="black" points="530.5,-363.5 530.5,-384.5 702.5,-384.5 702.5,-363.5 530.5,-363.5"/>
<text text-anchor="start" x="533.5" y="-371.3" font-family="Helvetica,sans-Serif" font-style="italic" font-size="14.00">DepartmentCoordinator</text>
<polygon fill="none" stroke="black" points="530.5,-336.5 530.5,-363.5 702.5,-363.5 702.5,-336.5 530.5,-336.5"/>
<text text-anchor="start" x="536.5" y="-347.3" font-family="Helvetica,sans-Serif" font-size="14.00">PK coordinator_id </text>
<text text-anchor="start" x="661.5" y="-347.3" font-family="Helvetica,sans-Serif" font-size="14.00" fill="#999999">int</text>
<polygon fill="none" stroke="black" points="530.5,-309.5 530.5,-336.5 702.5,-336.5 702.5,-309.5 530.5,-309.5"/>
<text text-anchor="start" x="536.5" y="-320.3" font-family="Helvetica,sans-Serif" font-size="14.00">start_date </text>
<text text-anchor="start" x="611.5" y="-320.3" font-family="Helvetica,sans-Serif" font-size="14.00" fill="#999999">date</text>
<polygon fill="none" stroke="black" points="530.5,-282.5 530.5,-309.5 702.5,-309.5 702.5,-282.5 530.5,-282.5"/>
<text text-anchor="start" x="536.5" y="-293.3" font-family="Helvetica,sans-Serif" font-size="14.00">end_date </text>
<text text-anchor="start" x="605.5" y="-293.3" font-family="Helvetica,sans-Serif" font-size="14.00" fill="#999999">date</text>
<polygon fill="none" stroke="black" points="530.5,-255.5 530.5,-282.5 702.5,-282.5 702.5,-255.5 530.5,-255.5"/>
<text text-anchor="start" x="536.5" y="-266.3" font-family="Helvetica,sans-Serif" font-size="14.00">department_id </text>
<text text-anchor="start" x="642.5" y="-266.3" font-family="Helvetica,sans-Serif" font-size="14.00" fill="#999999">int</text>
<polygon fill="none" stroke="black" points="530.5,-228.5 530.5,-255.5 702.5,-255.5 702.5,-228.5 530.5,-228.5"/>
<text text-anchor="start" x="536.5" y="-239.3" font-family="Helvetica,sans-Serif" font-size="14.00">personnel_id </text>
<text text-anchor="start" x="630.5" y="-239.3" font-family="Helvetica,sans-Serif" font-size="14.00" fill="#999999">int</text>
</g>
<!-- Department&#45;&gt;DepartmentCoordinator -->
<g id="edge2" class="edge">
<title>Department:department_id&#45;&gt;DepartmentCoordinator:department_id</title>
<path fill="none" stroke="black" d="M431.07,-200.14C475.43,-206.67 476.05,-261.26 520.36,-267.85"/>
<polyline fill="none" stroke="black" points="422,-199.5 426.49,-199.82 "/>
<polygon fill="black" stroke="black" points="427.07,-204.37 427.7,-195.39 429.5,-195.52 428.87,-204.5 427.07,-204.37"/>
<polyline fill="none" stroke="black" points="426.49,-199.82 430.98,-200.13 "/>
<polyline fill="none" stroke="black" points="529.5,-268.5 525.01,-268.18 "/>
<polygon fill="black" stroke="black" points="524.43,-263.63 523.79,-272.61 522,-272.48 522.64,-263.5 524.43,-263.63"/>
<polyline fill="none" stroke="black" points="525.01,-268.18 520.52,-267.86 "/>
</g>
<!-- DepartmentCapacityAlert -->
<g id="node14" class="node">
<title>DepartmentCapacityAlert</title>
<polygon fill="none" stroke="black" points="506.5,-170.5 506.5,-191.5 727.5,-191.5 727.5,-170.5 506.5,-170.5"/>
<text text-anchor="start" x="528.5" y="-178.3" font-family="Helvetica,sans-Serif" font-style="italic" font-size="14.00">DepartmentCapacityAlert</text>
<polygon fill="none" stroke="black" points="506.5,-143.5 506.5,-170.5 727.5,-170.5 727.5,-143.5 506.5,-143.5"/>
<text text-anchor="start" x="512.5" y="-154.3" font-family="Helvetica,sans-Serif" font-size="14.00">PK alert_id </text>
<text text-anchor="start" x="590.5" y="-154.3" font-family="Helvetica,sans-Serif" font-size="14.00" fill="#999999">int</text>
<polygon fill="none" stroke="black" points="506.5,-116.5 506.5,-143.5 727.5,-143.5 727.5,-116.5 506.5,-116.5"/>
<text text-anchor="start" x="512.5" y="-127.3" font-family="Helvetica,sans-Serif" font-size="14.00">department_id </text>
<text text-anchor="start" x="618.5" y="-127.3" font-family="Helvetica,sans-Serif" font-size="14.00" fill="#999999">int</text>
<polygon fill="none" stroke="black" points="506.5,-89.5 506.5,-116.5 727.5,-116.5 727.5,-89.5 506.5,-89.5"/>
<text text-anchor="start" x="512.5" y="-100.3" font-family="Helvetica,sans-Serif" font-size="14.00">alert_percentage </text>
<text text-anchor="start" x="633.5" y="-100.3" font-family="Helvetica,sans-Serif" font-size="14.00" fill="#999999">decimal(5,2)</text>
<polygon fill="none" stroke="black" points="506.5,-62.5 506.5,-89.5 727.5,-89.5 727.5,-62.5 506.5,-62.5"/>
<text text-anchor="start" x="512.5" y="-73.3" font-family="Helvetica,sans-Serif" font-size="14.00">alert_date </text>
<text text-anchor="start" x="586.5" y="-73.3" font-family="Helvetica,sans-Serif" font-size="14.00" fill="#999999">datetime</text>
</g>
<!-- Department&#45;&gt;DepartmentCapacityAlert -->
<g id="edge13" class="edge">
<title>Department:department_id&#45;&gt;DepartmentCapacityAlert:department_id</title>
<path fill="none" stroke="black" d="M431.33,-198.52C464.59,-191.09 462.26,-143.35 492.62,-132.63"/>
<polyline fill="none" stroke="black" points="422,-199.5 426.48,-199.03 "/>
<polygon fill="black" stroke="black" points="427.84,-203.41 426.9,-194.46 428.69,-194.28 429.63,-203.23 427.84,-203.41"/>
<polyline fill="none" stroke="black" points="426.48,-199.03 430.95,-198.56 "/>
<polygon fill="black" stroke="black" points="497.11,-131.92 506.64,-134.5 501.56,-131.21 506,-130.5 506,-130.5 506,-130.5 501.56,-131.21 505.36,-126.5 497.11,-131.92 497.11,-131.92"/>
<polygon fill="black" stroke="black" points="495.51,-127.62 496.93,-136.5 495.16,-136.79 493.74,-127.9 495.51,-127.62"/>
<polyline fill="none" stroke="black" points="497.11,-131.92 492.67,-132.63 "/>
</g>
<!-- Personnel -->
<g id="node4" class="node">
<title>Personnel</title>
<polygon fill="none" stroke="black" points="0,-877.5 0,-898.5 176,-898.5 176,-877.5 0,-877.5"/>
<text text-anchor="start" x="53.5" y="-885.3" font-family="Helvetica,sans-Serif" font-style="italic" font-size="14.00">Personnel</text>
<polygon fill="none" stroke="black" points="0,-850.5 0,-877.5 176,-877.5 176,-850.5 0,-850.5"/>
<text text-anchor="start" x="6" y="-861.3" font-family="Helvetica,sans-Serif" font-size="14.00">PK personnel_id </text>
<text text-anchor="start" x="121" y="-861.3" font-family="Helvetica,sans-Serif" font-size="14.00" fill="#999999">int</text>
<polygon fill="none" stroke="black" points="0,-823.5 0,-850.5 176,-850.5 176,-823.5 0,-823.5"/>
<text text-anchor="start" x="6" y="-834.3" font-family="Helvetica,sans-Serif" font-size="14.00">full_name </text>
<text text-anchor="start" x="79" y="-834.3" font-family="Helvetica,sans-Serif" font-size="14.00" fill="#999999">varchar(150)</text>
<polygon fill="none" stroke="black" points="0,-796.5 0,-823.5 176,-823.5 176,-796.5 0,-796.5"/>
<text text-anchor="start" x="6" y="-807.3" font-family="Helvetica,sans-Serif" font-size="14.00">cpf </text>
<text text-anchor="start" x="33" y="-807.3" font-family="Helvetica,sans-Serif" font-size="14.00" fill="#999999">varchar(14)</text>
<polygon fill="none" stroke="black" points="0,-769.5 0,-796.5 176,-796.5 176,-769.5 0,-769.5"/>
<text text-anchor="start" x="6" y="-780.3" font-family="Helvetica,sans-Serif" font-size="14.00">rg </text>
<text text-anchor="start" x="25" y="-780.3" font-family="Helvetica,sans-Serif" font-size="14.00" fill="#999999">varchar(20)</text>
<polygon fill="none" stroke="black" points="0,-742.5 0,-769.5 176,-769.5 176,-742.5 0,-742.5"/>
<text text-anchor="start" x="6" y="-753.3" font-family="Helvetica,sans-Serif" font-size="14.00">date_of_birth </text>
<text text-anchor="start" x="102" y="-753.3" font-family="Helvetica,sans-Serif" font-size="14.00" fill="#999999">date</text>
<polygon fill="none" stroke="black" points="0,-715.5 0,-742.5 176,-742.5 176,-715.5 0,-715.5"/>
<text text-anchor="start" x="6" y="-726.3" font-family="Helvetica,sans-Serif" font-size="14.00">role </text>
<text text-anchor="start" x="37" y="-726.3" font-family="Helvetica,sans-Serif" font-size="14.00" fill="#999999">varchar(50)</text>
</g>
<!-- Patient -->
<g id="node5" class="node">
<title>Patient</title>
<polygon fill="none" stroke="black" points="763,-1148.5 763,-1169.5 951,-1169.5 951,-1148.5 763,-1148.5"/>
<text text-anchor="start" x="832.5" y="-1156.3" font-family="Helvetica,sans-Serif" font-style="italic" font-size="14.00">Patient</text>
<polygon fill="none" stroke="black" points="763,-1121.5 763,-1148.5 951,-1148.5 951,-1121.5 763,-1121.5"/>
<text text-anchor="start" x="769" y="-1132.3" font-family="Helvetica,sans-Serif" font-size="14.00">PK patient_id </text>
<text text-anchor="start" x="864" y="-1132.3" font-family="Helvetica,sans-Serif" font-size="14.00" fill="#999999">int</text>
<polygon fill="none" stroke="black" points="763,-1094.5 763,-1121.5 951,-1121.5 951,-1094.5 763,-1094.5"/>
<text text-anchor="start" x="769" y="-1105.3" font-family="Helvetica,sans-Serif" font-size="14.00">wristband_id </text>
<text text-anchor="start" x="863" y="-1105.3" font-family="Helvetica,sans-Serif" font-size="14.00" fill="#999999">varchar(20)</text>
<polygon fill="none" stroke="black" points="763,-1067.5 763,-1094.5 951,-1094.5 951,-1067.5 763,-1067.5"/>
<text text-anchor="start" x="769" y="-1078.3" font-family="Helvetica,sans-Serif" font-size="14.00">personnel_id </text>
<text text-anchor="start" x="863" y="-1078.3" font-family="Helvetica,sans-Serif" font-size="14.00" fill="#999999">int</text>
</g>
<!-- Personnel&#45;&gt;Patient -->
<g id="edge3" class="edge">
<title>Personnel:personnel_id&#45;&gt;Patient:personnel_id</title>
<path fill="none" stroke="black" d="M185.22,-865.18C232.89,-872.92 189.81,-945.15 212,-999.5 312.35,-1245.3 276.68,-1385.72 506,-1519.5 590.84,-1568.99 654.76,-1586.05 727,-1519.5 760.74,-1488.41 719.84,-1129.77 754.93,-1085.07"/>
<polyline fill="none" stroke="black" points="176,-864.5 180.49,-864.83 "/>
<polygon fill="black" stroke="black" points="181.05,-869.38 181.72,-860.41 183.51,-860.54 182.85,-869.52 181.05,-869.38"/>
<polyline fill="none" stroke="black" points="180.49,-864.83 184.98,-865.16 "/>
<polyline fill="none" stroke="black" points="763,-1080.5 759.08,-1082.72 "/>
<polygon fill="black" stroke="black" points="756.08,-1079.24 760.51,-1087.08 758.95,-1087.96 754.52,-1080.13 756.08,-1079.24"/>
<polyline fill="none" stroke="black" points="759.08,-1082.72 755.17,-1084.93 "/>
</g>
<!-- Visitor -->
<g id="node6" class="node">
<title>Visitor</title>
<polygon fill="none" stroke="black" points="775,-534.5 775,-555.5 940,-555.5 940,-534.5 775,-534.5"/>
<text text-anchor="start" x="835" y="-542.3" font-family="Helvetica,sans-Serif" font-style="italic" font-size="14.00">Visitor</text>
<polygon fill="none" stroke="black" points="775,-507.5 775,-534.5 940,-534.5 940,-507.5 775,-507.5"/>
<text text-anchor="start" x="781" y="-518.3" font-family="Helvetica,sans-Serif" font-size="14.00">PK visitor_id </text>
<text text-anchor="start" x="870" y="-518.3" font-family="Helvetica,sans-Serif" font-size="14.00" fill="#999999">int</text>
<polygon fill="none" stroke="black" points="775,-480.5 775,-507.5 940,-507.5 940,-480.5 775,-480.5"/>
<text text-anchor="start" x="781" y="-491.3" font-family="Helvetica,sans-Serif" font-size="14.00">card_id </text>
<text text-anchor="start" x="836" y="-491.3" font-family="Helvetica,sans-Serif" font-size="14.00" fill="#999999">varchar(20)</text>
<polygon fill="none" stroke="black" points="775,-453.5 775,-480.5 940,-480.5 940,-453.5 775,-453.5"/>
<text text-anchor="start" x="781" y="-464.3" font-family="Helvetica,sans-Serif" font-size="14.00">visit_type </text>
<text text-anchor="start" x="852" y="-464.3" font-family="Helvetica,sans-Serif" font-size="14.00" fill="#999999">varchar(50)</text>
<polygon fill="none" stroke="black" points="775,-426.5 775,-453.5 940,-453.5 940,-426.5 775,-426.5"/>
<text text-anchor="start" x="781" y="-437.3" font-family="Helvetica,sans-Serif" font-size="14.00">personnel_id </text>
<text text-anchor="start" x="875" y="-437.3" font-family="Helvetica,sans-Serif" font-size="14.00" fill="#999999">int</text>
</g>
<!-- Personnel&#45;&gt;Visitor -->
<g id="edge4" class="edge">
<title>Personnel:personnel_id&#45;&gt;Visitor:personnel_id</title>
<path fill="none" stroke="black" d="M184.1,-860.29C237.92,-819.11 482.74,-489.26 506,-476.5 608.75,-420.15 651.57,-438.49 764.99,-439.46"/>
<polyline fill="none" stroke="black" points="176,-864.5 179.99,-862.42 "/>
<polygon fill="black" stroke="black" points="182.87,-866 178.72,-858.02 180.31,-857.19 184.46,-865.17 182.87,-866"/>
<polyline fill="none" stroke="black" points="179.99,-862.42 183.99,-860.35 "/>
<polyline fill="none" stroke="black" points="774,-439.5 769.5,-439.48 "/>
<polygon fill="black" stroke="black" points="768.62,-434.98 768.58,-443.98 766.78,-443.97 766.82,-434.97 768.62,-434.98"/>
<polyline fill="none" stroke="black" points="769.5,-439.48 765,-439.46 "/>
</g>
<!-- Employee -->
<g id="node7" class="node">
<title>Employee</title>
<polygon fill="none" stroke="black" points="212,-959.5 212,-980.5 470,-980.5 470,-959.5 212,-959.5"/>
<text text-anchor="start" x="306.5" y="-967.3" font-family="Helvetica,sans-Serif" font-style="italic" font-size="14.00">Employee</text>
<polygon fill="none" stroke="black" points="212,-932.5 212,-959.5 470,-959.5 470,-932.5 212,-932.5"/>
<text text-anchor="start" x="218" y="-943.3" font-family="Helvetica,sans-Serif" font-size="14.00">PK employee_id </text>
<text text-anchor="start" x="332" y="-943.3" font-family="Helvetica,sans-Serif" font-size="14.00" fill="#999999">int</text>
<polygon fill="none" stroke="black" points="212,-905.5 212,-932.5 470,-932.5 470,-905.5 212,-905.5"/>
<text text-anchor="start" x="218" y="-916.3" font-family="Helvetica,sans-Serif" font-size="14.00">contract_type </text>
<text text-anchor="start" x="318" y="-916.3" font-family="Helvetica,sans-Serif" font-size="14.00" fill="#999999">varchar(50)</text>
<polygon fill="none" stroke="black" points="212,-878.5 212,-905.5 470,-905.5 470,-878.5 212,-878.5"/>
<text text-anchor="start" x="218" y="-889.3" font-family="Helvetica,sans-Serif" font-size="14.00">professional_credential </text>
<text text-anchor="start" x="382" y="-889.3" font-family="Helvetica,sans-Serif" font-size="14.00" fill="#999999">varchar(50)</text>
<polygon fill="none" stroke="black" points="212,-851.5 212,-878.5 470,-878.5 470,-851.5 212,-851.5"/>
<text text-anchor="start" x="218" y="-862.3" font-family="Helvetica,sans-Serif" font-size="14.00">personnel_id </text>
<text text-anchor="start" x="312" y="-862.3" font-family="Helvetica,sans-Serif" font-size="14.00" fill="#999999">int</text>
</g>
<!-- Personnel&#45;&gt;Employee -->
<g id="edge5" class="edge">
<title>Personnel:personnel_id&#45;&gt;Employee:personnel_id</title>
<path fill="none" stroke="black" d="M185.03,-864.5C191.71,-864.5 196.26,-864.5 202.94,-864.5"/>
<polyline fill="none" stroke="black" points="176,-864.5 180.5,-864.5 "/>
<polygon fill="black" stroke="black" points="181.4,-869 181.4,-860 183.2,-860 183.2,-869 181.4,-869"/>
<polyline fill="none" stroke="black" points="180.5,-864.5 185,-864.5 "/>
<polyline fill="none" stroke="black" points="212,-864.5 207.5,-864.5 "/>
<polygon fill="black" stroke="black" points="206.6,-860 206.6,-869 204.8,-869 204.8,-860 206.6,-860"/>
<polyline fill="none" stroke="black" points="207.5,-864.5 203,-864.5 "/>
</g>
<!-- PatientMovement -->
<g id="node13" class="node">
<title>PatientMovement</title>
<polygon fill="none" stroke="black" points="987.5,-1175.5 987.5,-1196.5 1198.5,-1196.5 1198.5,-1175.5 987.5,-1175.5"/>
<text text-anchor="start" x="1032.5" y="-1183.3" font-family="Helvetica,sans-Serif" font-style="italic" font-size="14.00">PatientMovement</text>
<polygon fill="none" stroke="black" points="987.5,-1148.5 987.5,-1175.5 1198.5,-1175.5 1198.5,-1148.5 987.5,-1148.5"/>
<text text-anchor="start" x="993.5" y="-1159.3" font-family="Helvetica,sans-Serif" font-size="14.00">PK movement_id </text>
<text text-anchor="start" x="1114.5" y="-1159.3" font-family="Helvetica,sans-Serif" font-size="14.00" fill="#999999">int</text>
<polygon fill="none" stroke="black" points="987.5,-1121.5 987.5,-1148.5 1198.5,-1148.5 1198.5,-1121.5 987.5,-1121.5"/>
<text text-anchor="start" x="993.5" y="-1132.3" font-family="Helvetica,sans-Serif" font-size="14.00">patient_id </text>
<text text-anchor="start" x="1066.5" y="-1132.3" font-family="Helvetica,sans-Serif" font-size="14.00" fill="#999999">int</text>
<polygon fill="none" stroke="black" points="987.5,-1094.5 987.5,-1121.5 1198.5,-1121.5 1198.5,-1094.5 987.5,-1094.5"/>
<text text-anchor="start" x="993.5" y="-1105.3" font-family="Helvetica,sans-Serif" font-size="14.00">department_id </text>
<text text-anchor="start" x="1099.5" y="-1105.3" font-family="Helvetica,sans-Serif" font-size="14.00" fill="#999999">int</text>
<polygon fill="none" stroke="black" points="987.5,-1067.5 987.5,-1094.5 1198.5,-1094.5 1198.5,-1067.5 987.5,-1067.5"/>
<text text-anchor="start" x="993.5" y="-1078.3" font-family="Helvetica,sans-Serif" font-size="14.00">movement_date </text>
<text text-anchor="start" x="1110.5" y="-1078.3" font-family="Helvetica,sans-Serif" font-size="14.00" fill="#999999">datetime</text>
<polygon fill="none" stroke="black" points="987.5,-1040.5 987.5,-1067.5 1198.5,-1067.5 1198.5,-1040.5 987.5,-1040.5"/>
<text text-anchor="start" x="993.5" y="-1051.3" font-family="Helvetica,sans-Serif" font-size="14.00">movement_type </text>
<text text-anchor="start" x="1110.5" y="-1051.3" font-family="Helvetica,sans-Serif" font-size="14.00" fill="#999999">varchar(50)</text>
</g>
<!-- Patient&#45;&gt;PatientMovement -->
<g id="edge14" class="edge">
<title>Patient:patient_id&#45;&gt;PatientMovement:patient_id</title>
<path fill="none" stroke="black" d="M960.03,-1135.5C965.11,-1135.5 968.96,-1135.5 973.45,-1135.5"/>
<polyline fill="none" stroke="black" points="951,-1135.5 955.5,-1135.5 "/>
<polygon fill="black" stroke="black" points="956.4,-1140 956.4,-1131 958.2,-1131 958.2,-1140 956.4,-1140"/>
<polyline fill="none" stroke="black" points="955.5,-1135.5 960,-1135.5 "/>
<polygon fill="black" stroke="black" points="978,-1135.5 987,-1139.55 982.5,-1135.5 987,-1135.5 987,-1135.5 987,-1135.5 982.5,-1135.5 987,-1131.45 978,-1135.5 978,-1135.5"/>
<polygon fill="black" stroke="black" points="977.1,-1131 977.1,-1140 975.3,-1140 975.3,-1131 977.1,-1131"/>
<polyline fill="none" stroke="black" points="978,-1135.5 973.5,-1135.5 "/>
</g>
<!-- Address -->
<g id="node8" class="node">
<title>Address</title>
<polygon fill="none" stroke="black" points="526.5,-1068.5 526.5,-1089.5 707.5,-1089.5 707.5,-1068.5 526.5,-1068.5"/>
<text text-anchor="start" x="588" y="-1076.3" font-family="Helvetica,sans-Serif" font-style="italic" font-size="14.00">Address</text>
<polygon fill="none" stroke="black" points="526.5,-1041.5 526.5,-1068.5 707.5,-1068.5 707.5,-1041.5 526.5,-1041.5"/>
<text text-anchor="start" x="532.5" y="-1052.3" font-family="Helvetica,sans-Serif" font-size="14.00">PK address_id </text>
<text text-anchor="start" x="633.5" y="-1052.3" font-family="Helvetica,sans-Serif" font-size="14.00" fill="#999999">int</text>
<polygon fill="none" stroke="black" points="526.5,-1014.5 526.5,-1041.5 707.5,-1041.5 707.5,-1014.5 526.5,-1014.5"/>
<text text-anchor="start" x="532.5" y="-1025.3" font-family="Helvetica,sans-Serif" font-size="14.00">street </text>
<text text-anchor="start" x="577.5" y="-1025.3" font-family="Helvetica,sans-Serif" font-size="14.00" fill="#999999">varchar(200)</text>
<polygon fill="none" stroke="black" points="526.5,-987.5 526.5,-1014.5 707.5,-1014.5 707.5,-987.5 526.5,-987.5"/>
<text text-anchor="start" x="532.5" y="-998.3" font-family="Helvetica,sans-Serif" font-size="14.00">city </text>
<text text-anchor="start" x="562.5" y="-998.3" font-family="Helvetica,sans-Serif" font-size="14.00" fill="#999999">varchar(100)</text>
<polygon fill="none" stroke="black" points="526.5,-960.5 526.5,-987.5 707.5,-987.5 707.5,-960.5 526.5,-960.5"/>
<text text-anchor="start" x="532.5" y="-971.3" font-family="Helvetica,sans-Serif" font-size="14.00">state </text>
<text text-anchor="start" x="572.5" y="-971.3" font-family="Helvetica,sans-Serif" font-size="14.00" fill="#999999">varchar(50)</text>
<polygon fill="none" stroke="black" points="526.5,-933.5 526.5,-960.5 707.5,-960.5 707.5,-933.5 526.5,-933.5"/>
<text text-anchor="start" x="532.5" y="-944.3" font-family="Helvetica,sans-Serif" font-size="14.00">personnel_id </text>
<text text-anchor="start" x="626.5" y="-944.3" font-family="Helvetica,sans-Serif" font-size="14.00" fill="#999999">int</text>
<polygon fill="none" stroke="black" points="526.5,-906.5 526.5,-933.5 707.5,-933.5 707.5,-906.5 526.5,-906.5"/>
<text text-anchor="start" x="532.5" y="-917.3" font-family="Helvetica,sans-Serif" font-size="14.00">last_updated </text>
<text text-anchor="start" x="626.5" y="-917.3" font-family="Helvetica,sans-Serif" font-size="14.00" fill="#999999">timestamp</text>
</g>
<!-- Employee&#45;&gt;Address -->
<g id="edge9" class="edge">
<title>Employee:employee_id&#45;&gt;Address:personnel_id</title>
<path fill="none" stroke="black" d="M479.41,-946.5C494.06,-946.5 501.71,-946.5 516.47,-946.5"/>
<polyline fill="none" stroke="black" points="470,-946.5 474.5,-946.5 "/>
<polygon fill="black" stroke="black" points="475.4,-951 475.4,-942 477.2,-942 477.2,-951 475.4,-951"/>
<polyline fill="none" stroke="black" points="474.5,-946.5 479,-946.5 "/>
<polyline fill="none" stroke="black" points="525.5,-946.5 521,-946.5 "/>
<polygon fill="black" stroke="black" points="520.1,-942 520.1,-951 518.3,-951 518.3,-942 520.1,-942"/>
<polyline fill="none" stroke="black" points="521,-946.5 516.5,-946.5 "/>
</g>
<!-- IdentificationCard -->
<g id="node9" class="node">
<title>IdentificationCard</title>
<polygon fill="none" stroke="black" points="531.5,-656.5 531.5,-677.5 701.5,-677.5 701.5,-656.5 531.5,-656.5"/>
<text text-anchor="start" x="554.5" y="-664.3" font-family="Helvetica,sans-Serif" font-style="italic" font-size="14.00">IdentificationCard</text>
<polygon fill="none" stroke="black" points="531.5,-629.5 531.5,-656.5 701.5,-656.5 701.5,-629.5 531.5,-629.5"/>
<text text-anchor="start" x="537.5" y="-640.3" font-family="Helvetica,sans-Serif" font-size="14.00">PK card_id </text>
<text text-anchor="start" x="613.5" y="-640.3" font-family="Helvetica,sans-Serif" font-size="14.00" fill="#999999">varchar(20)</text>
<polygon fill="none" stroke="black" points="531.5,-602.5 531.5,-629.5 701.5,-629.5 701.5,-602.5 531.5,-602.5"/>
<text text-anchor="start" x="537.5" y="-613.3" font-family="Helvetica,sans-Serif" font-size="14.00">issue_date </text>
<text text-anchor="start" x="616.5" y="-613.3" font-family="Helvetica,sans-Serif" font-size="14.00" fill="#999999">date</text>
<polygon fill="none" stroke="black" points="531.5,-575.5 531.5,-602.5 701.5,-602.5 701.5,-575.5 531.5,-575.5"/>
<text text-anchor="start" x="537.5" y="-586.3" font-family="Helvetica,sans-Serif" font-size="14.00">expiry_date </text>
<text text-anchor="start" x="623.5" y="-586.3" font-family="Helvetica,sans-Serif" font-size="14.00" fill="#999999">date</text>
<polygon fill="none" stroke="black" points="531.5,-548.5 531.5,-575.5 701.5,-575.5 701.5,-548.5 531.5,-548.5"/>
<text text-anchor="start" x="537.5" y="-559.3" font-family="Helvetica,sans-Serif" font-size="14.00">card_type </text>
<text text-anchor="start" x="610.5" y="-559.3" font-family="Helvetica,sans-Serif" font-size="14.00" fill="#999999">varchar(50)</text>
<polygon fill="none" stroke="black" points="531.5,-521.5 531.5,-548.5 701.5,-548.5 701.5,-521.5 531.5,-521.5"/>
<text text-anchor="start" x="537.5" y="-532.3" font-family="Helvetica,sans-Serif" font-size="14.00">is_active </text>
<text text-anchor="start" x="601.5" y="-532.3" font-family="Helvetica,sans-Serif" font-size="14.00" fill="#999999">boolean</text>
<polygon fill="none" stroke="black" points="531.5,-494.5 531.5,-521.5 701.5,-521.5 701.5,-494.5 531.5,-494.5"/>
<text text-anchor="start" x="537.5" y="-505.3" font-family="Helvetica,sans-Serif" font-size="14.00">photo </text>
<text text-anchor="start" x="582.5" y="-505.3" font-family="Helvetica,sans-Serif" font-size="14.00" fill="#999999">blob</text>
</g>
<!-- Employee&#45;&gt;IdentificationCard -->
<g id="edge10" class="edge">
<title>Employee:employee_id&#45;&gt;IdentificationCard:employee_id</title>
<path fill="none" stroke="black" d="M478.86,-944.51C521.07,-923.6 482.4,-743.78 506,-696.5 511.28,-685.93 517.95,-675.76 525.4,-666.16"/>
<polyline fill="none" stroke="black" points="470,-946.5 474.39,-945.51 "/>
<polygon fill="black" stroke="black" points="476.25,-949.71 474.28,-940.93 476.04,-940.53 478.01,-949.31 476.25,-949.71"/>
<polyline fill="none" stroke="black" points="474.39,-945.51 478.78,-944.53 "/>
<polyline fill="none" stroke="black" points="531.23,-658.93 528.41,-662.43 "/>
<polygon fill="black" stroke="black" points="524.34,-660.3 531.35,-665.96 530.22,-667.36 523.21,-661.7 524.34,-660.3"/>
<polyline fill="none" stroke="black" points="528.41,-662.43 525.58,-665.93 "/>
</g>
<!-- WorkSchedule -->
<g id="node10" class="node">
<title>WorkSchedule</title>
<polygon fill="none" stroke="black" points="533.5,-849.5 533.5,-870.5 700.5,-870.5 700.5,-849.5 533.5,-849.5"/>
<text text-anchor="start" x="567" y="-857.3" font-family="Helvetica,sans-Serif" font-style="italic" font-size="14.00">WorkSchedule</text>
<polygon fill="none" stroke="black" points="533.5,-822.5 533.5,-849.5 700.5,-849.5 700.5,-822.5 533.5,-822.5"/>
<text text-anchor="start" x="539.5" y="-833.3" font-family="Helvetica,sans-Serif" font-size="14.00">PK schedule_id </text>
<text text-anchor="start" x="648.5" y="-833.3" font-family="Helvetica,sans-Serif" font-size="14.00" fill="#999999">int</text>
<polygon fill="none" stroke="black" points="533.5,-795.5 533.5,-822.5 700.5,-822.5 700.5,-795.5 533.5,-795.5"/>
<text text-anchor="start" x="539.5" y="-806.3" font-family="Helvetica,sans-Serif" font-size="14.00">employee_id </text>
<text text-anchor="start" x="631.5" y="-806.3" font-family="Helvetica,sans-Serif" font-size="14.00" fill="#999999">int</text>
<polygon fill="none" stroke="black" points="533.5,-768.5 533.5,-795.5 700.5,-795.5 700.5,-768.5 533.5,-768.5"/>
<text text-anchor="start" x="539.5" y="-779.3" font-family="Helvetica,sans-Serif" font-size="14.00">start_date </text>
<text text-anchor="start" x="614.5" y="-779.3" font-family="Helvetica,sans-Serif" font-size="14.00" fill="#999999">date</text>
<polygon fill="none" stroke="black" points="533.5,-741.5 533.5,-768.5 700.5,-768.5 700.5,-741.5 533.5,-741.5"/>
<text text-anchor="start" x="539.5" y="-752.3" font-family="Helvetica,sans-Serif" font-size="14.00">end_date </text>
<text text-anchor="start" x="608.5" y="-752.3" font-family="Helvetica,sans-Serif" font-size="14.00" fill="#999999">date</text>
<polygon fill="none" stroke="black" points="533.5,-714.5 533.5,-741.5 700.5,-741.5 700.5,-714.5 533.5,-714.5"/>
<text text-anchor="start" x="539.5" y="-725.3" font-family="Helvetica,sans-Serif" font-size="14.00">shift_type </text>
<text text-anchor="start" x="612.5" y="-725.3" font-family="Helvetica,sans-Serif" font-size="14.00" fill="#999999">varchar(50)</text>
</g>
<!-- Employee&#45;&gt;WorkSchedule -->
<g id="edge6" class="edge">
<title>Employee:employee_id&#45;&gt;WorkSchedule:employee_id</title>
<path fill="none" stroke="black" d="M479.16,-945.48C525.76,-933.99 478.44,-829.45 518.99,-811.97"/>
<polyline fill="none" stroke="black" points="470,-946.5 474.47,-946 "/>
<polygon fill="black" stroke="black" points="475.87,-950.37 474.87,-941.43 476.66,-941.23 477.66,-950.17 475.87,-950.37"/>
<polyline fill="none" stroke="black" points="474.47,-946 478.94,-945.5 "/>
<polygon fill="black" stroke="black" points="523.65,-811.12 533.23,-813.48 528.07,-810.31 532.5,-809.5 532.5,-809.5 532.5,-809.5 528.07,-810.31 531.77,-805.52 523.65,-811.12 523.65,-811.12"/>
<polygon fill="black" stroke="black" points="521.95,-806.86 523.57,-815.71 521.8,-816.03 520.18,-807.18 521.95,-806.86"/>
<polyline fill="none" stroke="black" points="523.65,-811.12 519.22,-811.93 "/>
</g>
<!-- TimeClockRecord -->
<g id="node11" class="node">
<title>TimeClockRecord</title>
<polygon fill="none" stroke="black" points="544.5,-1480.5 544.5,-1501.5 688.5,-1501.5 688.5,-1480.5 544.5,-1480.5"/>
<text text-anchor="start" x="556" y="-1488.3" font-family="Helvetica,sans-Serif" font-style="italic" font-size="14.00">TimeClockRecord</text>
<polygon fill="none" stroke="black" points="544.5,-1453.5 544.5,-1480.5 688.5,-1480.5 688.5,-1453.5 544.5,-1453.5"/>
<text text-anchor="start" x="550.5" y="-1464.3" font-family="Helvetica,sans-Serif" font-size="14.00">PK record_id </text>
<text text-anchor="start" x="640.5" y="-1464.3" font-family="Helvetica,sans-Serif" font-size="14.00" fill="#999999">int</text>
<polygon fill="none" stroke="black" points="544.5,-1426.5 544.5,-1453.5 688.5,-1453.5 688.5,-1426.5 544.5,-1426.5"/>
<text text-anchor="start" x="550.5" y="-1437.3" font-family="Helvetica,sans-Serif" font-size="14.00">employee_id </text>
<text text-anchor="start" x="642.5" y="-1437.3" font-family="Helvetica,sans-Serif" font-size="14.00" fill="#999999">int</text>
<polygon fill="none" stroke="black" points="544.5,-1399.5 544.5,-1426.5 688.5,-1426.5 688.5,-1399.5 544.5,-1399.5"/>
<text text-anchor="start" x="550.5" y="-1410.3" font-family="Helvetica,sans-Serif" font-size="14.00">clock_in </text>
<text text-anchor="start" x="610.5" y="-1410.3" font-family="Helvetica,sans-Serif" font-size="14.00" fill="#999999">datetime</text>
<polygon fill="none" stroke="black" points="544.5,-1372.5 544.5,-1399.5 688.5,-1399.5 688.5,-1372.5 544.5,-1372.5"/>
<text text-anchor="start" x="550.5" y="-1383.3" font-family="Helvetica,sans-Serif" font-size="14.00">clock_out </text>
<text text-anchor="start" x="620.5" y="-1383.3" font-family="Helvetica,sans-Serif" font-size="14.00" fill="#999999">datetime</text>
<polygon fill="none" stroke="black" points="544.5,-1345.5 544.5,-1372.5 688.5,-1372.5 688.5,-1345.5 544.5,-1345.5"/>
<text text-anchor="start" x="550.5" y="-1356.3" font-family="Helvetica,sans-Serif" font-size="14.00">location_id </text>
<text text-anchor="start" x="629.5" y="-1356.3" font-family="Helvetica,sans-Serif" font-size="14.00" fill="#999999">int</text>
</g>
<!-- Employee&#45;&gt;TimeClockRecord -->
<g id="edge7" class="edge">
<title>Employee:employee_id&#45;&gt;TimeClockRecord:employee_id</title>
<path fill="none" stroke="black" d="M477.94,-951.05C510.55,-991.51 497.85,-1288.73 506,-1327.5 515.79,-1374.02 495.54,-1428.16 529.71,-1438.68"/>
<polyline fill="none" stroke="black" points="470,-946.5 473.9,-948.74 "/>
<polygon fill="black" stroke="black" points="472.44,-953.09 476.92,-945.28 478.48,-946.18 474,-953.99 472.44,-953.09"/>
<polyline fill="none" stroke="black" points="473.9,-948.74 477.81,-950.98 "/>
<polygon fill="black" stroke="black" points="534.58,-1439.32 542.97,-1444.52 539.04,-1439.91 543.5,-1440.5 543.5,-1440.5 543.5,-1440.5 539.04,-1439.91 544.03,-1436.48 534.58,-1439.32 534.58,-1439.32"/>
<polygon fill="black" stroke="black" points="534.27,-1434.74 533.1,-1443.67 531.31,-1443.43 532.49,-1434.51 534.27,-1434.74"/>
<polyline fill="none" stroke="black" points="534.58,-1439.32 530.12,-1438.73 "/>
</g>
<!-- AvailabilityException -->
<g id="node12" class="node">
<title>AvailabilityException</title>
<polygon fill="none" stroke="black" points="514.5,-1287.5 514.5,-1308.5 718.5,-1308.5 718.5,-1287.5 514.5,-1287.5"/>
<text text-anchor="start" x="544" y="-1295.3" font-family="Helvetica,sans-Serif" font-style="italic" font-size="14.00">AvailabilityException</text>
<polygon fill="none" stroke="black" points="514.5,-1260.5 514.5,-1287.5 718.5,-1287.5 718.5,-1260.5 514.5,-1260.5"/>
<text text-anchor="start" x="520.5" y="-1271.3" font-family="Helvetica,sans-Serif" font-size="14.00">PK exception_id </text>
<text text-anchor="start" x="634.5" y="-1271.3" font-family="Helvetica,sans-Serif" font-size="14.00" fill="#999999">int</text>
<polygon fill="none" stroke="black" points="514.5,-1233.5 514.5,-1260.5 718.5,-1260.5 718.5,-1233.5 514.5,-1233.5"/>
<text text-anchor="start" x="520.5" y="-1244.3" font-family="Helvetica,sans-Serif" font-size="14.00">employee_id </text>
<text text-anchor="start" x="612.5" y="-1244.3" font-family="Helvetica,sans-Serif" font-size="14.00" fill="#999999">int</text>
<polygon fill="none" stroke="black" points="514.5,-1206.5 514.5,-1233.5 718.5,-1233.5 718.5,-1206.5 514.5,-1206.5"/>
<text text-anchor="start" x="520.5" y="-1217.3" font-family="Helvetica,sans-Serif" font-size="14.00">start_date </text>
<text text-anchor="start" x="595.5" y="-1217.3" font-family="Helvetica,sans-Serif" font-size="14.00" fill="#999999">date</text>
<polygon fill="none" stroke="black" points="514.5,-1179.5 514.5,-1206.5 718.5,-1206.5 718.5,-1179.5 514.5,-1179.5"/>
<text text-anchor="start" x="520.5" y="-1190.3" font-family="Helvetica,sans-Serif" font-size="14.00">end_date </text>
<text text-anchor="start" x="589.5" y="-1190.3" font-family="Helvetica,sans-Serif" font-size="14.00" fill="#999999">date</text>
<polygon fill="none" stroke="black" points="514.5,-1152.5 514.5,-1179.5 718.5,-1179.5 718.5,-1152.5 514.5,-1152.5"/>
<text text-anchor="start" x="520.5" y="-1163.3" font-family="Helvetica,sans-Serif" font-size="14.00">exception_type </text>
<text text-anchor="start" x="630.5" y="-1163.3" font-family="Helvetica,sans-Serif" font-size="14.00" fill="#999999">varchar(50)</text>
<polygon fill="none" stroke="black" points="514.5,-1125.5 514.5,-1152.5 718.5,-1152.5 718.5,-1125.5 514.5,-1125.5"/>
<text text-anchor="start" x="520.5" y="-1136.3" font-family="Helvetica,sans-Serif" font-size="14.00">notes </text>
<text text-anchor="start" x="563.5" y="-1136.3" font-family="Helvetica,sans-Serif" font-size="14.00" fill="#999999">text</text>
</g>
<!-- Employee&#45;&gt;AvailabilityException -->
<g id="edge8" class="edge">
<title>Employee:employee_id&#45;&gt;AvailabilityException:employee_id</title>
<path fill="none" stroke="black" d="M478.8,-948.58C524.89,-973 461.43,-1204.48 500.44,-1242.29"/>
<polyline fill="none" stroke="black" points="470,-946.5 474.38,-947.54 "/>
<polygon fill="black" stroke="black" points="474.22,-952.12 476.29,-943.37 478.04,-943.78 475.97,-952.54 474.22,-952.12"/>
<polyline fill="none" stroke="black" points="474.38,-947.54 478.76,-948.57 "/>
<polygon fill="black" stroke="black" points="505.14,-1244.16 512,-1251.26 509.32,-1245.83 513.5,-1247.5 513.5,-1247.5 513.5,-1247.5 509.32,-1245.83 515,-1243.74 505.14,-1244.16 505.14,-1244.16"/>
<polygon fill="black" stroke="black" points="505.97,-1239.65 502.64,-1248.01 500.97,-1247.34 504.3,-1238.98 505.97,-1239.65"/>
<polyline fill="none" stroke="black" points="505.14,-1244.16 500.96,-1242.5 "/>
</g>
<!-- IdentificationCard&#45;&gt;Patient -->
<g id="edge11" class="edge">
<title>IdentificationCard:card_id&#45;&gt;Patient:card_id</title>
<path fill="none" stroke="black" d="M711.65,-644.59C791.91,-663.95 834.2,-934.99 849.37,-1058.25"/>
<polyline fill="none" stroke="black" points="702.5,-643.5 706.97,-644.03 "/>
<polygon fill="black" stroke="black" points="707.33,-648.61 708.4,-639.67 710.18,-639.89 709.11,-648.82 707.33,-648.61"/>
<polyline fill="none" stroke="black" points="706.97,-644.03 711.44,-644.57 "/>
<polyline fill="none" stroke="black" points="850.46,-1067.22 849.92,-1062.75 "/>
<polygon fill="black" stroke="black" points="854.28,-1061.31 845.34,-1062.4 845.13,-1060.61 854.06,-1059.53 854.28,-1061.31"/>
<polyline fill="none" stroke="black" points="849.92,-1062.75 849.38,-1058.28 "/>
</g>
<!-- IdentificationCard&#45;&gt;Visitor -->
<g id="edge12" class="edge">
<title>IdentificationCard:card_id&#45;&gt;Visitor:card_id</title>
<path fill="none" stroke="black" d="M711.52,-642.62C766.76,-630.99 709.73,-506.97 765,-495.37"/>
<polyline fill="none" stroke="black" points="702.5,-643.5 706.98,-643.07 "/>
<polygon fill="black" stroke="black" points="708.31,-647.46 707.44,-638.5 709.23,-638.33 710.1,-647.28 708.31,-647.46"/>
<polyline fill="none" stroke="black" points="706.98,-643.07 711.46,-642.63 "/>
<polyline fill="none" stroke="black" points="774,-494.5 769.52,-494.93 "/>
<polygon fill="black" stroke="black" points="768.19,-490.54 769.06,-499.5 767.27,-499.67 766.4,-490.71 768.19,-490.54"/>
<polyline fill="none" stroke="black" points="769.52,-494.93 765.04,-495.37 "/>
</g>
</g>
</svg>
