<?xml version="1.0" encoding="UTF-8" standalone="no"?>
<!DOCTYPE svg PUBLIC "-//W3C//DTD SVG 1.1//EN"
 "http://www.w3.org/Graphics/SVG/1.1/DTD/svg11.dtd">
<!-- Generated by graphviz version 2.43.0 (0)
 -->
<!-- Title: G Pages: 1 -->
<svg width="1767pt" height="1607pt"
 viewBox="0.00 0.00 1766.80 1607.12" xmlns="http://www.w3.org/2000/svg" xmlns:xlink="http://www.w3.org/1999/xlink">
<g id="graph0" class="graph" transform="scale(1 1) rotate(0) translate(14.4 1592.72)">
<title>G</title>
<polygon fill="white" stroke="transparent" points="-14.4,14.4 -14.4,-1592.72 1752.4,-1592.72 1752.4,14.4 -14.4,14.4"/>
<text text-anchor="middle" x="869" y="-7.8" font-family="Helvetica,sans-Serif" font-size="14.00">Integrated Hospital Management System</text>
<!-- Person -->
<g id="node1" class="node">
<title>Person</title>
<polygon fill="none" stroke="black" points="537,-697.49 537,-718.49 761,-718.49 761,-697.49 537,-697.49"/>
<text text-anchor="start" x="625" y="-705.29" font-family="Helvetica,sans-Serif" font-style="italic" font-size="14.00">Person</text>
<polygon fill="none" stroke="black" points="537,-670.49 537,-697.49 761,-697.49 761,-670.49 537,-670.49"/>
<text text-anchor="start" x="543" y="-681.29" font-family="Helvetica,sans-Serif" font-size="14.00">PK PersonID </text>
<text text-anchor="start" x="632" y="-681.29" font-family="Helvetica,sans-Serif" font-size="14.00" fill="#999999">int() NOT NULL</text>
<polygon fill="none" stroke="black" points="537,-643.49 537,-670.49 761,-670.49 761,-643.49 537,-643.49"/>
<text text-anchor="start" x="543" y="-654.29" font-family="Helvetica,sans-Serif" font-size="14.00">Name </text>
<text text-anchor="start" x="589" y="-654.29" font-family="Helvetica,sans-Serif" font-size="14.00" fill="#999999">varchar(200) NOT NULL</text>
<polygon fill="none" stroke="black" points="537,-616.49 537,-643.49 761,-643.49 761,-616.49 537,-616.49"/>
<text text-anchor="start" x="543" y="-627.29" font-family="Helvetica,sans-Serif" font-size="14.00">CPF </text>
<text text-anchor="start" x="574" y="-627.29" font-family="Helvetica,sans-Serif" font-size="14.00" fill="#999999">varchar(11) NOT NULL</text>
<polygon fill="none" stroke="black" points="537,-589.49 537,-616.49 761,-616.49 761,-589.49 537,-589.49"/>
<text text-anchor="start" x="543" y="-600.29" font-family="Helvetica,sans-Serif" font-size="14.00">RG </text>
<text text-anchor="start" x="568" y="-600.29" font-family="Helvetica,sans-Serif" font-size="14.00" fill="#999999">varchar(15) NOT NULL</text>
<polygon fill="none" stroke="black" points="537,-562.49 537,-589.49 761,-589.49 761,-562.49 537,-562.49"/>
<text text-anchor="start" x="543" y="-573.29" font-family="Helvetica,sans-Serif" font-size="14.00">DOB </text>
<text text-anchor="start" x="580" y="-573.29" font-family="Helvetica,sans-Serif" font-size="14.00" fill="#999999">date() NOT NULL</text>
</g>
<!-- Employee -->
<g id="node4" class="node">
<title>Employee</title>
<polygon fill="none" stroke="black" points="844.5,-863.49 844.5,-884.49 1070.5,-884.49 1070.5,-863.49 844.5,-863.49"/>
<text text-anchor="start" x="923" y="-871.29" font-family="Helvetica,sans-Serif" font-style="italic" font-size="14.00">Employee</text>
<polygon fill="none" stroke="black" points="844.5,-836.49 844.5,-863.49 1070.5,-863.49 1070.5,-836.49 844.5,-836.49"/>
<text text-anchor="start" x="850.5" y="-847.29" font-family="Helvetica,sans-Serif" font-size="14.00">PK EmployeeID </text>
<text text-anchor="start" x="960.5" y="-847.29" font-family="Helvetica,sans-Serif" font-size="14.00" fill="#999999">int() NOT NULL</text>
<polygon fill="none" stroke="black" points="844.5,-809.49 844.5,-836.49 1070.5,-836.49 1070.5,-809.49 844.5,-809.49"/>
<text text-anchor="start" x="850.5" y="-820.29" font-family="Helvetica,sans-Serif" font-size="14.00">FK PersonID </text>
<text text-anchor="start" x="939.5" y="-820.29" font-family="Helvetica,sans-Serif" font-size="14.00" fill="#999999">int() NOT NULL</text>
<polygon fill="none" stroke="black" points="844.5,-782.49 844.5,-809.49 1070.5,-809.49 1070.5,-782.49 844.5,-782.49"/>
<text text-anchor="start" x="850.5" y="-793.29" font-family="Helvetica,sans-Serif" font-size="14.00">Role </text>
<text text-anchor="start" x="884.5" y="-793.29" font-family="Helvetica,sans-Serif" font-size="14.00" fill="#999999">varchar(50) NOT NULL</text>
</g>
<!-- Person&#45;&gt;Employee -->
<g id="edge4" class="edge">
<title>Person:PersonID&#45;&gt;Employee:PersonID</title>
<path fill="none" stroke="black" d="M770.08,-685.58C796.15,-692.78 778.47,-734.23 797,-764.49 812.5,-789.81 811.01,-816.45 834.51,-821.6"/>
<polyline fill="none" stroke="black" points="761,-684.49 765.47,-685.03 "/>
<polygon fill="black" stroke="black" points="765.83,-689.6 766.9,-680.67 768.68,-680.88 767.61,-689.82 765.83,-689.6"/>
<polyline fill="none" stroke="black" points="765.47,-685.03 769.94,-685.57 "/>
<polygon fill="black" stroke="black" points="834.54,-821.61 843.1,-826.52 839.02,-822.05 843.5,-822.49 843.5,-822.49 843.5,-822.49 839.02,-822.05 843.9,-818.46 834.54,-821.61 834.54,-821.61"/>
</g>
<!-- Patient -->
<g id="node10" class="node">
<title>Patient</title>
<polygon fill="none" stroke="black" points="827.5,-1281.49 827.5,-1302.49 1087.5,-1302.49 1087.5,-1281.49 827.5,-1281.49"/>
<text text-anchor="start" x="933" y="-1289.29" font-family="Helvetica,sans-Serif" font-style="italic" font-size="14.00">Patient</text>
<polygon fill="none" stroke="black" points="827.5,-1254.49 827.5,-1281.49 1087.5,-1281.49 1087.5,-1254.49 827.5,-1254.49"/>
<text text-anchor="start" x="833.5" y="-1265.29" font-family="Helvetica,sans-Serif" font-size="14.00">PK PatientID </text>
<text text-anchor="start" x="922.5" y="-1265.29" font-family="Helvetica,sans-Serif" font-size="14.00" fill="#999999">int() NOT NULL</text>
<polygon fill="none" stroke="black" points="827.5,-1227.49 827.5,-1254.49 1087.5,-1254.49 1087.5,-1227.49 827.5,-1227.49"/>
<text text-anchor="start" x="833.5" y="-1238.29" font-family="Helvetica,sans-Serif" font-size="14.00">FK PersonID </text>
<text text-anchor="start" x="922.5" y="-1238.29" font-family="Helvetica,sans-Serif" font-size="14.00" fill="#999999">int() NOT NULL</text>
<polygon fill="none" stroke="black" points="827.5,-1200.49 827.5,-1227.49 1087.5,-1227.49 1087.5,-1200.49 827.5,-1200.49"/>
<text text-anchor="start" x="833.5" y="-1211.29" font-family="Helvetica,sans-Serif" font-size="14.00">WristbandID </text>
<text text-anchor="start" x="924.5" y="-1211.29" font-family="Helvetica,sans-Serif" font-size="14.00" fill="#999999">varchar(50) NOT NULL</text>
</g>
<!-- Person&#45;&gt;Patient -->
<g id="edge10" class="edge">
<title>Person:PersonID&#45;&gt;Patient:PersonID</title>
<path fill="none" stroke="black" d="M769.27,-688.34C815.28,-734.97 772.2,-1190.58 818.31,-1236.73"/>
<polyline fill="none" stroke="black" points="761,-684.49 765.08,-686.39 "/>
<polygon fill="black" stroke="black" points="764,-690.85 767.79,-682.69 769.43,-683.45 765.63,-691.61 764,-690.85"/>
<polyline fill="none" stroke="black" points="765.08,-686.39 769.16,-688.29 "/>
<polygon fill="black" stroke="black" points="818.32,-1236.73 824.81,-1244.17 822.41,-1238.61 826.5,-1240.49 826.5,-1240.49 826.5,-1240.49 822.41,-1238.61 828.19,-1236.81 818.32,-1236.73 818.32,-1236.73"/>
</g>
<!-- Visitor -->
<g id="node11" class="node">
<title>Visitor</title>
<polygon fill="none" stroke="black" points="833.5,-505.49 833.5,-526.49 1082.5,-526.49 1082.5,-505.49 833.5,-505.49"/>
<text text-anchor="start" x="935.5" y="-513.29" font-family="Helvetica,sans-Serif" font-style="italic" font-size="14.00">Visitor</text>
<polygon fill="none" stroke="black" points="833.5,-478.49 833.5,-505.49 1082.5,-505.49 1082.5,-478.49 833.5,-478.49"/>
<text text-anchor="start" x="839.5" y="-489.29" font-family="Helvetica,sans-Serif" font-size="14.00">PK VisitorID </text>
<text text-anchor="start" x="924.5" y="-489.29" font-family="Helvetica,sans-Serif" font-size="14.00" fill="#999999">int() NOT NULL</text>
<polygon fill="none" stroke="black" points="833.5,-451.49 833.5,-478.49 1082.5,-478.49 1082.5,-451.49 833.5,-451.49"/>
<text text-anchor="start" x="839.5" y="-462.29" font-family="Helvetica,sans-Serif" font-size="14.00">FK PersonID </text>
<text text-anchor="start" x="928.5" y="-462.29" font-family="Helvetica,sans-Serif" font-size="14.00" fill="#999999">int() NOT NULL</text>
<polygon fill="none" stroke="black" points="833.5,-424.49 833.5,-451.49 1082.5,-451.49 1082.5,-424.49 833.5,-424.49"/>
<text text-anchor="start" x="839.5" y="-435.29" font-family="Helvetica,sans-Serif" font-size="14.00">VisitorType </text>
<text text-anchor="start" x="919.5" y="-435.29" font-family="Helvetica,sans-Serif" font-size="14.00" fill="#999999">varchar(50) NOT NULL</text>
<polygon fill="none" stroke="black" points="833.5,-397.49 833.5,-424.49 1082.5,-424.49 1082.5,-397.49 833.5,-397.49"/>
<text text-anchor="start" x="839.5" y="-408.29" font-family="Helvetica,sans-Serif" font-size="14.00">EntryTime </text>
<text text-anchor="start" x="915.5" y="-408.29" font-family="Helvetica,sans-Serif" font-size="14.00" fill="#999999">datetime() NOT NULL</text>
<polygon fill="none" stroke="black" points="833.5,-370.49 833.5,-397.49 1082.5,-397.49 1082.5,-370.49 833.5,-370.49"/>
<text text-anchor="start" x="839.5" y="-381.29" font-family="Helvetica,sans-Serif" font-size="14.00">ExitTime </text>
<text text-anchor="start" x="904.5" y="-381.29" font-family="Helvetica,sans-Serif" font-size="14.00" fill="#999999">datetime()</text>
<polygon fill="none" stroke="black" points="833.5,-343.49 833.5,-370.49 1082.5,-370.49 1082.5,-343.49 833.5,-343.49"/>
<text text-anchor="start" x="839.5" y="-354.29" font-family="Helvetica,sans-Serif" font-size="14.00">AuthorizationStatus </text>
<text text-anchor="start" x="981.5" y="-354.29" font-family="Helvetica,sans-Serif" font-size="14.00" fill="#999999">varchar(50)</text>
</g>
<!-- Person&#45;&gt;Visitor -->
<g id="edge11" class="edge">
<title>Person:PersonID&#45;&gt;Visitor:PersonID</title>
<path fill="none" stroke="black" d="M770.24,-683.85C820.22,-676.18 776.88,-601.93 797,-544.49 808.58,-511.43 796.6,-473.11 823.38,-466.49"/>
<polyline fill="none" stroke="black" points="761,-684.49 765.49,-684.18 "/>
<polygon fill="black" stroke="black" points="766.7,-688.61 766.07,-679.63 767.87,-679.5 768.5,-688.48 766.7,-688.61"/>
<polyline fill="none" stroke="black" points="765.49,-684.18 769.98,-683.86 "/>
<polygon fill="black" stroke="black" points="823.55,-466.47 832.94,-469.52 828.03,-465.98 832.5,-465.49 832.5,-465.49 832.5,-465.49 828.03,-465.98 832.06,-461.47 823.55,-466.47 823.55,-466.47"/>
</g>
<!-- Address -->
<g id="node12" class="node">
<title>Address</title>
<polygon fill="none" stroke="black" points="797.5,-724.49 797.5,-745.49 1118.5,-745.49 1118.5,-724.49 797.5,-724.49"/>
<text text-anchor="start" x="929" y="-732.29" font-family="Helvetica,sans-Serif" font-style="italic" font-size="14.00">Address</text>
<polygon fill="none" stroke="black" points="797.5,-697.49 797.5,-724.49 1118.5,-724.49 1118.5,-697.49 797.5,-697.49"/>
<text text-anchor="start" x="803.5" y="-708.29" font-family="Helvetica,sans-Serif" font-size="14.00">PK AddressID </text>
<text text-anchor="start" x="900.5" y="-708.29" font-family="Helvetica,sans-Serif" font-size="14.00" fill="#999999">int() NOT NULL</text>
<polygon fill="none" stroke="black" points="797.5,-670.49 797.5,-697.49 1118.5,-697.49 1118.5,-670.49 797.5,-670.49"/>
<text text-anchor="start" x="803.5" y="-681.29" font-family="Helvetica,sans-Serif" font-size="14.00">FK PersonID </text>
<text text-anchor="start" x="892.5" y="-681.29" font-family="Helvetica,sans-Serif" font-size="14.00" fill="#999999">int() NOT NULL</text>
<polygon fill="none" stroke="black" points="797.5,-643.49 797.5,-670.49 1118.5,-670.49 1118.5,-643.49 797.5,-643.49"/>
<text text-anchor="start" x="803.5" y="-654.29" font-family="Helvetica,sans-Serif" font-size="14.00">AddressLine </text>
<text text-anchor="start" x="892.5" y="-654.29" font-family="Helvetica,sans-Serif" font-size="14.00" fill="#999999">varchar(255) NOT NULL</text>
<polygon fill="none" stroke="black" points="797.5,-616.49 797.5,-643.49 1118.5,-643.49 1118.5,-616.49 797.5,-616.49"/>
<text text-anchor="start" x="803.5" y="-627.29" font-family="Helvetica,sans-Serif" font-size="14.00">City </text>
<text text-anchor="start" x="835.5" y="-627.29" font-family="Helvetica,sans-Serif" font-size="14.00" fill="#999999">varchar(100) NOT NULL</text>
<polygon fill="none" stroke="black" points="797.5,-589.49 797.5,-616.49 1118.5,-616.49 1118.5,-589.49 797.5,-589.49"/>
<text text-anchor="start" x="803.5" y="-600.29" font-family="Helvetica,sans-Serif" font-size="14.00">State </text>
<text text-anchor="start" x="844.5" y="-600.29" font-family="Helvetica,sans-Serif" font-size="14.00" fill="#999999">varchar(50) NOT NULL</text>
<polygon fill="none" stroke="black" points="797.5,-562.49 797.5,-589.49 1118.5,-589.49 1118.5,-562.49 797.5,-562.49"/>
<text text-anchor="start" x="803.5" y="-573.29" font-family="Helvetica,sans-Serif" font-size="14.00">LastUpdateTimestamp </text>
<text text-anchor="start" x="964.5" y="-573.29" font-family="Helvetica,sans-Serif" font-size="14.00" fill="#999999">datetime() NOT NULL</text>
</g>
<!-- Person&#45;&gt;Address -->
<g id="edge12" class="edge">
<title>Person:PersonID&#45;&gt;Address:PersonID</title>
<path fill="none" stroke="black" d="M770.03,-684.49C776.71,-684.49 781.26,-684.49 787.94,-684.49"/>
<polyline fill="none" stroke="black" points="761,-684.49 765.5,-684.49 "/>
<polygon fill="black" stroke="black" points="766.4,-688.99 766.4,-679.99 768.2,-679.99 768.2,-688.99 766.4,-688.99"/>
<polyline fill="none" stroke="black" points="765.5,-684.49 770,-684.49 "/>
<polygon fill="black" stroke="black" points="788,-684.49 797,-688.54 792.5,-684.49 797,-684.49 797,-684.49 797,-684.49 792.5,-684.49 797,-680.44 788,-684.49 788,-684.49"/>
</g>
<!-- Hospital -->
<g id="node2" class="node">
<title>Hospital</title>
<polygon fill="none" stroke="black" points="0,-375.49 0,-396.49 224,-396.49 224,-375.49 0,-375.49"/>
<text text-anchor="start" x="83.5" y="-383.29" font-family="Helvetica,sans-Serif" font-style="italic" font-size="14.00">Hospital</text>
<polygon fill="none" stroke="black" points="0,-348.49 0,-375.49 224,-375.49 224,-348.49 0,-348.49"/>
<text text-anchor="start" x="6" y="-359.29" font-family="Helvetica,sans-Serif" font-size="14.00">PK HospitalID </text>
<text text-anchor="start" x="104" y="-359.29" font-family="Helvetica,sans-Serif" font-size="14.00" fill="#999999">int() NOT NULL</text>
<polygon fill="none" stroke="black" points="0,-321.49 0,-348.49 224,-348.49 224,-321.49 0,-321.49"/>
<text text-anchor="start" x="6" y="-332.29" font-family="Helvetica,sans-Serif" font-size="14.00">Name </text>
<text text-anchor="start" x="52" y="-332.29" font-family="Helvetica,sans-Serif" font-size="14.00" fill="#999999">varchar(200) NOT NULL</text>
<polygon fill="none" stroke="black" points="0,-294.49 0,-321.49 224,-321.49 224,-294.49 0,-294.49"/>
<text text-anchor="start" x="6" y="-305.29" font-family="Helvetica,sans-Serif" font-size="14.00">State </text>
<text text-anchor="start" x="47" y="-305.29" font-family="Helvetica,sans-Serif" font-size="14.00" fill="#999999">varchar(50) NOT NULL</text>
</g>
<!-- Department -->
<g id="node3" class="node">
<title>Department</title>
<polygon fill="none" stroke="black" points="260.5,-430.49 260.5,-451.49 501.5,-451.49 501.5,-430.49 260.5,-430.49"/>
<text text-anchor="start" x="339" y="-438.29" font-family="Helvetica,sans-Serif" font-style="italic" font-size="14.00">Department</text>
<polygon fill="none" stroke="black" points="260.5,-403.49 260.5,-430.49 501.5,-430.49 501.5,-403.49 260.5,-403.49"/>
<text text-anchor="start" x="266.5" y="-414.29" font-family="Helvetica,sans-Serif" font-size="14.00">PK DepartmentID </text>
<text text-anchor="start" x="391.5" y="-414.29" font-family="Helvetica,sans-Serif" font-size="14.00" fill="#999999">int() NOT NULL</text>
<polygon fill="none" stroke="black" points="260.5,-376.49 260.5,-403.49 501.5,-403.49 501.5,-376.49 260.5,-376.49"/>
<text text-anchor="start" x="266.5" y="-387.29" font-family="Helvetica,sans-Serif" font-size="14.00">Name </text>
<text text-anchor="start" x="312.5" y="-387.29" font-family="Helvetica,sans-Serif" font-size="14.00" fill="#999999">varchar(100) NOT NULL</text>
<polygon fill="none" stroke="black" points="260.5,-349.49 260.5,-376.49 501.5,-376.49 501.5,-349.49 260.5,-349.49"/>
<text text-anchor="start" x="266.5" y="-360.29" font-family="Helvetica,sans-Serif" font-size="14.00">FK HospitalID </text>
<text text-anchor="start" x="364.5" y="-360.29" font-family="Helvetica,sans-Serif" font-size="14.00" fill="#999999">int() NOT NULL</text>
<polygon fill="none" stroke="black" points="260.5,-322.49 260.5,-349.49 501.5,-349.49 501.5,-322.49 260.5,-322.49"/>
<text text-anchor="start" x="266.5" y="-333.29" font-family="Helvetica,sans-Serif" font-size="14.00">FK CoordinatorID </text>
<text text-anchor="start" x="389.5" y="-333.29" font-family="Helvetica,sans-Serif" font-size="14.00" fill="#999999">int() NOT NULL</text>
</g>
<!-- Hospital&#45;&gt;Department -->
<g id="edge1" class="edge">
<title>Hospital:HospitalID&#45;&gt;Department:HospitalID</title>
<path fill="none" stroke="black" d="M233.03,-362.49C239.71,-362.49 244.26,-362.49 250.94,-362.49"/>
<polyline fill="none" stroke="black" points="224,-362.49 228.5,-362.49 "/>
<polygon fill="black" stroke="black" points="229.4,-366.99 229.4,-357.99 231.2,-357.99 231.2,-366.99 229.4,-366.99"/>
<polyline fill="none" stroke="black" points="228.5,-362.49 233,-362.49 "/>
<polygon fill="black" stroke="black" points="251,-362.49 260,-366.54 255.5,-362.49 260,-362.49 260,-362.49 260,-362.49 255.5,-362.49 260,-358.44 251,-362.49 251,-362.49"/>
</g>
<!-- Department&#45;&gt;Person -->
<g id="edge3" class="edge">
<title>Department:CoordinatorID&#45;&gt;Person:PersonID</title>
<path fill="none" stroke="black" d="M510.06,-335.93C642.88,-349.37 395.32,-670.25 527.72,-684.04"/>
<polyline fill="none" stroke="black" points="501,-335.49 505.49,-335.71 "/>
<polygon fill="black" stroke="black" points="506.18,-340.25 506.61,-331.26 508.41,-331.34 507.98,-340.33 506.18,-340.25"/>
<polyline fill="none" stroke="black" points="505.49,-335.71 509.99,-335.93 "/>
<polygon fill="black" stroke="black" points="528.01,-684.05 536.8,-688.54 532.51,-684.27 537,-684.49 537,-684.49 537,-684.49 532.51,-684.27 537.2,-680.45 528.01,-684.05 528.01,-684.05"/>
</g>
<!-- PatientMovement -->
<g id="node17" class="node">
<title>PatientMovement</title>
<polygon fill="none" stroke="black" points="1496,-494.49 1496,-515.49 1738,-515.49 1738,-494.49 1496,-494.49"/>
<text text-anchor="start" x="1556.5" y="-502.29" font-family="Helvetica,sans-Serif" font-style="italic" font-size="14.00">PatientMovement</text>
<polygon fill="none" stroke="black" points="1496,-467.49 1496,-494.49 1738,-494.49 1738,-467.49 1496,-467.49"/>
<text text-anchor="start" x="1502" y="-478.29" font-family="Helvetica,sans-Serif" font-size="14.00">PK MovementID </text>
<text text-anchor="start" x="1617" y="-478.29" font-family="Helvetica,sans-Serif" font-size="14.00" fill="#999999">int() NOT NULL</text>
<polygon fill="none" stroke="black" points="1496,-440.49 1496,-467.49 1738,-467.49 1738,-440.49 1496,-440.49"/>
<text text-anchor="start" x="1502" y="-451.29" font-family="Helvetica,sans-Serif" font-size="14.00">FK PatientID </text>
<text text-anchor="start" x="1591" y="-451.29" font-family="Helvetica,sans-Serif" font-size="14.00" fill="#999999">int() NOT NULL</text>
<polygon fill="none" stroke="black" points="1496,-413.49 1496,-440.49 1738,-440.49 1738,-413.49 1496,-413.49"/>
<text text-anchor="start" x="1502" y="-424.29" font-family="Helvetica,sans-Serif" font-size="14.00">FK DepartmentID </text>
<text text-anchor="start" x="1627" y="-424.29" font-family="Helvetica,sans-Serif" font-size="14.00" fill="#999999">int() NOT NULL</text>
<polygon fill="none" stroke="black" points="1496,-386.49 1496,-413.49 1738,-413.49 1738,-386.49 1496,-386.49"/>
<text text-anchor="start" x="1502" y="-397.29" font-family="Helvetica,sans-Serif" font-size="14.00">Timestamp </text>
<text text-anchor="start" x="1584" y="-397.29" font-family="Helvetica,sans-Serif" font-size="14.00" fill="#999999">datetime() NOT NULL</text>
<polygon fill="none" stroke="black" points="1496,-359.49 1496,-386.49 1738,-386.49 1738,-359.49 1496,-359.49"/>
<text text-anchor="start" x="1502" y="-370.29" font-family="Helvetica,sans-Serif" font-size="14.00">Status </text>
<text text-anchor="start" x="1551" y="-370.29" font-family="Helvetica,sans-Serif" font-size="14.00" fill="#999999">varchar(50) NOT NULL</text>
</g>
<!-- Department&#45;&gt;PatientMovement -->
<g id="edge2" class="edge">
<title>Department:DepartmentID&#45;&gt;PatientMovement:DepartmentID</title>
<path fill="none" stroke="black" d="M510.15,-417.41C951.63,-409.19 1128.16,191.21 1460,-105.49 1511,-151.1 1432.28,-401.38 1486.94,-424.74"/>
<polyline fill="none" stroke="black" points="501,-417.49 505.5,-417.45 "/>
<polygon fill="black" stroke="black" points="506.44,-421.94 506.36,-412.94 508.16,-412.93 508.24,-421.93 506.44,-421.94"/>
<polyline fill="none" stroke="black" points="505.5,-417.45 510,-417.41 "/>
<polygon fill="black" stroke="black" points="1487.16,-424.79 1495.23,-430.47 1491.58,-425.64 1496,-426.49 1496,-426.49 1496,-426.49 1491.58,-425.64 1496.77,-422.52 1487.16,-424.79 1487.16,-424.79"/>
</g>
<!-- Physician -->
<g id="node5" class="node">
<title>Physician</title>
<polygon fill="none" stroke="black" points="1194,-1306.49 1194,-1327.49 1420,-1327.49 1420,-1306.49 1194,-1306.49"/>
<text text-anchor="start" x="1274" y="-1314.29" font-family="Helvetica,sans-Serif" font-style="italic" font-size="14.00">Physician</text>
<polygon fill="none" stroke="black" points="1194,-1279.49 1194,-1306.49 1420,-1306.49 1420,-1279.49 1194,-1279.49"/>
<text text-anchor="start" x="1200" y="-1290.29" font-family="Helvetica,sans-Serif" font-size="14.00">PK PhysicianID </text>
<text text-anchor="start" x="1307" y="-1290.29" font-family="Helvetica,sans-Serif" font-size="14.00" fill="#999999">int() NOT NULL</text>
<polygon fill="none" stroke="black" points="1194,-1252.49 1194,-1279.49 1420,-1279.49 1420,-1252.49 1194,-1252.49"/>
<text text-anchor="start" x="1200" y="-1263.29" font-family="Helvetica,sans-Serif" font-size="14.00">FK EmployeeID </text>
<text text-anchor="start" x="1310" y="-1263.29" font-family="Helvetica,sans-Serif" font-size="14.00" fill="#999999">int() NOT NULL</text>
<polygon fill="none" stroke="black" points="1194,-1225.49 1194,-1252.49 1420,-1252.49 1420,-1225.49 1194,-1225.49"/>
<text text-anchor="start" x="1200" y="-1236.29" font-family="Helvetica,sans-Serif" font-size="14.00">CRM </text>
<text text-anchor="start" x="1237" y="-1236.29" font-family="Helvetica,sans-Serif" font-size="14.00" fill="#999999">varchar(20) NOT NULL</text>
</g>
<!-- Employee&#45;&gt;Physician -->
<g id="edge5" class="edge">
<title>Employee:EmployeeID&#45;&gt;Physician:EmployeeID</title>
<path fill="none" stroke="black" d="M1080.7,-850.83C1252.19,-863.94 1012.22,-1252.28 1183.95,-1265.17"/>
<polyline fill="none" stroke="black" points="1071.5,-850.49 1076,-850.66 "/>
<polygon fill="black" stroke="black" points="1076.73,-855.19 1077.06,-846.2 1078.86,-846.26 1078.53,-855.26 1076.73,-855.19"/>
<polyline fill="none" stroke="black" points="1076,-850.66 1080.49,-850.83 "/>
<polygon fill="black" stroke="black" points="1184.01,-1265.17 1192.85,-1269.54 1188.5,-1265.33 1193,-1265.49 1193,-1265.49 1193,-1265.49 1188.5,-1265.33 1193.15,-1261.45 1184.01,-1265.17 1184.01,-1265.17"/>
</g>
<!-- Nurse -->
<g id="node6" class="node">
<title>Nurse</title>
<polygon fill="none" stroke="black" points="1194,-1168.49 1194,-1189.49 1420,-1189.49 1420,-1168.49 1194,-1168.49"/>
<text text-anchor="start" x="1286" y="-1176.29" font-family="Helvetica,sans-Serif" font-style="italic" font-size="14.00">Nurse</text>
<polygon fill="none" stroke="black" points="1194,-1141.49 1194,-1168.49 1420,-1168.49 1420,-1141.49 1194,-1141.49"/>
<text text-anchor="start" x="1200" y="-1152.29" font-family="Helvetica,sans-Serif" font-size="14.00">PK NurseID </text>
<text text-anchor="start" x="1283" y="-1152.29" font-family="Helvetica,sans-Serif" font-size="14.00" fill="#999999">int() NOT NULL</text>
<polygon fill="none" stroke="black" points="1194,-1114.49 1194,-1141.49 1420,-1141.49 1420,-1114.49 1194,-1114.49"/>
<text text-anchor="start" x="1200" y="-1125.29" font-family="Helvetica,sans-Serif" font-size="14.00">FK EmployeeID </text>
<text text-anchor="start" x="1310" y="-1125.29" font-family="Helvetica,sans-Serif" font-size="14.00" fill="#999999">int() NOT NULL</text>
<polygon fill="none" stroke="black" points="1194,-1087.49 1194,-1114.49 1420,-1114.49 1420,-1087.49 1194,-1087.49"/>
<text text-anchor="start" x="1200" y="-1098.29" font-family="Helvetica,sans-Serif" font-size="14.00">COREN </text>
<text text-anchor="start" x="1255" y="-1098.29" font-family="Helvetica,sans-Serif" font-size="14.00" fill="#999999">varchar(20) NOT NULL</text>
</g>
<!-- Employee&#45;&gt;Nurse -->
<g id="edge6" class="edge">
<title>Employee:EmployeeID&#45;&gt;Nurse:EmployeeID</title>
<path fill="none" stroke="black" d="M1080.5,-850.94C1196.28,-863.02 1068.28,-1114.75 1183.86,-1127.03"/>
<polyline fill="none" stroke="black" points="1071.5,-850.49 1075.99,-850.72 "/>
<polygon fill="black" stroke="black" points="1076.67,-855.26 1077.12,-846.27 1078.92,-846.36 1078.47,-855.35 1076.67,-855.26"/>
<polyline fill="none" stroke="black" points="1075.99,-850.72 1080.49,-850.94 "/>
<polygon fill="black" stroke="black" points="1184.01,-1127.04 1192.79,-1131.54 1188.51,-1127.27 1193,-1127.49 1193,-1127.49 1193,-1127.49 1188.51,-1127.27 1193.21,-1123.45 1184.01,-1127.04 1184.01,-1127.04"/>
</g>
<!-- Resident -->
<g id="node7" class="node">
<title>Resident</title>
<polygon fill="none" stroke="black" points="1154,-1030.49 1154,-1051.49 1460,-1051.49 1460,-1030.49 1154,-1030.49"/>
<text text-anchor="start" x="1276.5" y="-1038.29" font-family="Helvetica,sans-Serif" font-style="italic" font-size="14.00">Resident</text>
<polygon fill="none" stroke="black" points="1154,-1003.49 1154,-1030.49 1460,-1030.49 1460,-1003.49 1154,-1003.49"/>
<text text-anchor="start" x="1160" y="-1014.29" font-family="Helvetica,sans-Serif" font-size="14.00">PK ResidentID </text>
<text text-anchor="start" x="1262" y="-1014.29" font-family="Helvetica,sans-Serif" font-size="14.00" fill="#999999">int() NOT NULL</text>
<polygon fill="none" stroke="black" points="1154,-976.49 1154,-1003.49 1460,-1003.49 1460,-976.49 1154,-976.49"/>
<text text-anchor="start" x="1160" y="-987.29" font-family="Helvetica,sans-Serif" font-size="14.00">FK EmployeeID </text>
<text text-anchor="start" x="1270" y="-987.29" font-family="Helvetica,sans-Serif" font-size="14.00" fill="#999999">int() NOT NULL</text>
<polygon fill="none" stroke="black" points="1154,-949.49 1154,-976.49 1460,-976.49 1460,-949.49 1154,-949.49"/>
<text text-anchor="start" x="1160" y="-960.29" font-family="Helvetica,sans-Serif" font-size="14.00">FK SupervisingPhysicianID </text>
<text text-anchor="start" x="1350" y="-960.29" font-family="Helvetica,sans-Serif" font-size="14.00" fill="#999999">int() NOT NULL</text>
</g>
<!-- Employee&#45;&gt;Resident -->
<g id="edge7" class="edge">
<title>Employee:EmployeeID&#45;&gt;Resident:EmployeeID</title>
<path fill="none" stroke="black" d="M1080.75,-851.38C1135.11,-862.64 1090.38,-977.44 1144.81,-988.62"/>
<polyline fill="none" stroke="black" points="1071.5,-850.49 1075.98,-850.92 "/>
<polygon fill="black" stroke="black" points="1076.45,-855.49 1077.31,-846.53 1079.1,-846.7 1078.24,-855.66 1076.45,-855.49"/>
<polyline fill="none" stroke="black" points="1075.98,-850.92 1080.46,-851.35 "/>
<polygon fill="black" stroke="black" points="1145.04,-988.64 1153.62,-993.53 1149.52,-989.07 1154,-989.49 1154,-989.49 1154,-989.49 1149.52,-989.07 1154.38,-985.46 1145.04,-988.64 1145.04,-988.64"/>
</g>
<!-- Researcher -->
<g id="node8" class="node">
<title>Researcher</title>
<polygon fill="none" stroke="black" points="1190,-891.49 1190,-912.49 1425,-912.49 1425,-891.49 1190,-891.49"/>
<text text-anchor="start" x="1268" y="-899.29" font-family="Helvetica,sans-Serif" font-style="italic" font-size="14.00">Researcher</text>
<polygon fill="none" stroke="black" points="1190,-864.49 1190,-891.49 1425,-891.49 1425,-864.49 1190,-864.49"/>
<text text-anchor="start" x="1196" y="-875.29" font-family="Helvetica,sans-Serif" font-size="14.00">PK ResearcherID </text>
<text text-anchor="start" x="1315" y="-875.29" font-family="Helvetica,sans-Serif" font-size="14.00" fill="#999999">int() NOT NULL</text>
<polygon fill="none" stroke="black" points="1190,-837.49 1190,-864.49 1425,-864.49 1425,-837.49 1190,-837.49"/>
<text text-anchor="start" x="1196" y="-848.29" font-family="Helvetica,sans-Serif" font-size="14.00">FK EmployeeID </text>
<text text-anchor="start" x="1306" y="-848.29" font-family="Helvetica,sans-Serif" font-size="14.00" fill="#999999">int() NOT NULL</text>
</g>
<!-- Employee&#45;&gt;Researcher -->
<g id="edge8" class="edge">
<title>Employee:EmployeeID&#45;&gt;Researcher:EmployeeID</title>
<path fill="none" stroke="black" d="M1080.57,-850.49C1122.55,-850.49 1137.95,-850.49 1179.93,-850.49"/>
<polyline fill="none" stroke="black" points="1071.5,-850.49 1076,-850.49 "/>
<polygon fill="black" stroke="black" points="1076.9,-854.99 1076.9,-845.99 1078.7,-845.99 1078.7,-854.99 1076.9,-854.99"/>
<polyline fill="none" stroke="black" points="1076,-850.49 1080.5,-850.49 "/>
<polygon fill="black" stroke="black" points="1180,-850.49 1189,-854.54 1184.5,-850.49 1189,-850.49 1189,-850.49 1189,-850.49 1184.5,-850.49 1189,-846.44 1180,-850.49 1180,-850.49"/>
</g>
<!-- AdminStaff -->
<g id="node9" class="node">
<title>AdminStaff</title>
<polygon fill="none" stroke="black" points="1190,-780.49 1190,-801.49 1424,-801.49 1424,-780.49 1190,-780.49"/>
<text text-anchor="start" x="1268" y="-788.29" font-family="Helvetica,sans-Serif" font-style="italic" font-size="14.00">AdminStaff</text>
<polygon fill="none" stroke="black" points="1190,-753.49 1190,-780.49 1424,-780.49 1424,-753.49 1190,-753.49"/>
<text text-anchor="start" x="1196" y="-764.29" font-family="Helvetica,sans-Serif" font-size="14.00">PK AdminStaffID </text>
<text text-anchor="start" x="1314" y="-764.29" font-family="Helvetica,sans-Serif" font-size="14.00" fill="#999999">int() NOT NULL</text>
<polygon fill="none" stroke="black" points="1190,-726.49 1190,-753.49 1424,-753.49 1424,-726.49 1190,-726.49"/>
<text text-anchor="start" x="1196" y="-737.29" font-family="Helvetica,sans-Serif" font-size="14.00">FK EmployeeID </text>
<text text-anchor="start" x="1306" y="-737.29" font-family="Helvetica,sans-Serif" font-size="14.00" fill="#999999">int() NOT NULL</text>
</g>
<!-- Employee&#45;&gt;AdminStaff -->
<g id="edge9" class="edge">
<title>Employee:EmployeeID&#45;&gt;AdminStaff:EmployeeID</title>
<path fill="none" stroke="black" d="M1080.61,-849.84C1138.35,-841.17 1122.16,-748.78 1179.92,-740.14"/>
<polyline fill="none" stroke="black" points="1071.5,-850.49 1075.99,-850.17 "/>
<polygon fill="black" stroke="black" points="1077.21,-854.6 1076.56,-845.62 1078.36,-845.49 1079,-854.47 1077.21,-854.6"/>
<polyline fill="none" stroke="black" points="1075.99,-850.17 1080.48,-849.85 "/>
<polygon fill="black" stroke="black" points="1180.02,-740.13 1189.29,-743.53 1184.51,-739.81 1189,-739.49 1189,-739.49 1189,-739.49 1184.51,-739.81 1188.71,-735.45 1180.02,-740.13 1180.02,-740.13"/>
</g>
<!-- IdentificationCard -->
<g id="node13" class="node">
<title>IdentificationCard</title>
<polygon fill="none" stroke="black" points="1202,-450.49 1202,-471.49 1413,-471.49 1413,-450.49 1202,-450.49"/>
<text text-anchor="start" x="1245.5" y="-458.29" font-family="Helvetica,sans-Serif" font-style="italic" font-size="14.00">IdentificationCard</text>
<polygon fill="none" stroke="black" points="1202,-423.49 1202,-450.49 1413,-450.49 1413,-423.49 1202,-423.49"/>
<text text-anchor="start" x="1208" y="-434.29" font-family="Helvetica,sans-Serif" font-size="14.00">PK CardID </text>
<text text-anchor="start" x="1282" y="-434.29" font-family="Helvetica,sans-Serif" font-size="14.00" fill="#999999">int() NOT NULL</text>
<polygon fill="none" stroke="black" points="1202,-396.49 1202,-423.49 1413,-423.49 1413,-396.49 1202,-396.49"/>
<text text-anchor="start" x="1208" y="-407.29" font-family="Helvetica,sans-Serif" font-size="14.00">IssueDate </text>
<text text-anchor="start" x="1282" y="-407.29" font-family="Helvetica,sans-Serif" font-size="14.00" fill="#999999">date() NOT NULL</text>
<polygon fill="none" stroke="black" points="1202,-369.49 1202,-396.49 1413,-396.49 1413,-369.49 1202,-369.49"/>
<text text-anchor="start" x="1208" y="-380.29" font-family="Helvetica,sans-Serif" font-size="14.00">ExpiryDate </text>
<text text-anchor="start" x="1290" y="-380.29" font-family="Helvetica,sans-Serif" font-size="14.00" fill="#999999">date() NOT NULL</text>
<polygon fill="none" stroke="black" points="1202,-342.49 1202,-369.49 1413,-369.49 1413,-342.49 1202,-342.49"/>
<text text-anchor="start" x="1208" y="-353.29" font-family="Helvetica,sans-Serif" font-size="14.00">Type </text>
<text text-anchor="start" x="1245" y="-353.29" font-family="Helvetica,sans-Serif" font-size="14.00" fill="#999999">varchar(50) NOT NULL</text>
<polygon fill="none" stroke="black" points="1202,-315.49 1202,-342.49 1413,-342.49 1413,-315.49 1202,-315.49"/>
<text text-anchor="start" x="1208" y="-326.29" font-family="Helvetica,sans-Serif" font-size="14.00">Active </text>
<text text-anchor="start" x="1255" y="-326.29" font-family="Helvetica,sans-Serif" font-size="14.00" fill="#999999">boolean NOT NULL</text>
<polygon fill="none" stroke="black" points="1202,-288.49 1202,-315.49 1413,-315.49 1413,-288.49 1202,-288.49"/>
<text text-anchor="start" x="1208" y="-299.29" font-family="Helvetica,sans-Serif" font-size="14.00">FK PersonID </text>
<text text-anchor="start" x="1297" y="-299.29" font-family="Helvetica,sans-Serif" font-size="14.00" fill="#999999">int()</text>
<polygon fill="none" stroke="black" points="1202,-261.49 1202,-288.49 1413,-288.49 1413,-261.49 1202,-261.49"/>
<text text-anchor="start" x="1208" y="-272.29" font-family="Helvetica,sans-Serif" font-size="14.00">FK TempPersonID </text>
<text text-anchor="start" x="1334" y="-272.29" font-family="Helvetica,sans-Serif" font-size="14.00" fill="#999999">int()</text>
</g>
<!-- Employee&#45;&gt;IdentificationCard -->
<g id="edge13" class="edge">
<title>Employee:EmployeeID&#45;&gt;IdentificationCard:PersonID</title>
<path fill="none" stroke="black" d="M1080.58,-849.45C1187.95,-823.67 1084.59,-328.65 1191.82,-302.56"/>
<polyline fill="none" stroke="black" points="1071.5,-850.49 1075.97,-849.98 "/>
<polygon fill="black" stroke="black" points="1077.38,-854.35 1076.35,-845.41 1078.14,-845.2 1079.17,-854.14 1077.38,-854.35"/>
<polyline fill="none" stroke="black" points="1075.97,-849.98 1080.44,-849.47 "/>
<polygon fill="black" stroke="black" points="1192.06,-302.53 1201.47,-305.52 1196.53,-302.01 1201,-301.49 1201,-301.49 1201,-301.49 1196.53,-302.01 1200.53,-297.47 1192.06,-302.53 1192.06,-302.53"/>
</g>
<!-- Schedule -->
<g id="node14" class="node">
<title>Schedule</title>
<polygon fill="none" stroke="black" points="1194,-204.49 1194,-225.49 1420,-225.49 1420,-204.49 1194,-204.49"/>
<text text-anchor="start" x="1275" y="-212.29" font-family="Helvetica,sans-Serif" font-style="italic" font-size="14.00">Schedule</text>
<polygon fill="none" stroke="black" points="1194,-177.49 1194,-204.49 1420,-204.49 1420,-177.49 1194,-177.49"/>
<text text-anchor="start" x="1200" y="-188.29" font-family="Helvetica,sans-Serif" font-size="14.00">PK ScheduleID </text>
<text text-anchor="start" x="1306" y="-188.29" font-family="Helvetica,sans-Serif" font-size="14.00" fill="#999999">int() NOT NULL</text>
<polygon fill="none" stroke="black" points="1194,-150.49 1194,-177.49 1420,-177.49 1420,-150.49 1194,-150.49"/>
<text text-anchor="start" x="1200" y="-161.29" font-family="Helvetica,sans-Serif" font-size="14.00">FK EmployeeID </text>
<text text-anchor="start" x="1310" y="-161.29" font-family="Helvetica,sans-Serif" font-size="14.00" fill="#999999">int() NOT NULL</text>
<polygon fill="none" stroke="black" points="1194,-123.49 1194,-150.49 1420,-150.49 1420,-123.49 1194,-123.49"/>
<text text-anchor="start" x="1200" y="-134.29" font-family="Helvetica,sans-Serif" font-size="14.00">ShiftDetails </text>
<text text-anchor="start" x="1284" y="-134.29" font-family="Helvetica,sans-Serif" font-size="14.00" fill="#999999">text()</text>
</g>
<!-- Employee&#45;&gt;Schedule -->
<g id="edge15" class="edge">
<title>Employee:EmployeeID&#45;&gt;Schedule:EmployeeID</title>
<path fill="none" stroke="black" d="M1080.61,-849.64C1215.97,-823.19 1048.64,-191.52 1183.66,-164.39"/>
<polyline fill="none" stroke="black" points="1071.5,-850.49 1075.98,-850.07 "/>
<polygon fill="black" stroke="black" points="1077.3,-854.47 1076.46,-845.51 1078.25,-845.34 1079.09,-854.3 1077.3,-854.47"/>
<polyline fill="none" stroke="black" points="1075.98,-850.07 1080.46,-849.65 "/>
<polygon fill="black" stroke="black" points="1184.04,-164.36 1193.39,-167.53 1188.52,-163.93 1193,-163.49 1193,-163.49 1193,-163.49 1188.52,-163.93 1192.61,-159.46 1184.04,-164.36 1184.04,-164.36"/>
</g>
<!-- TimeClock -->
<g id="node15" class="node">
<title>TimeClock</title>
<polygon fill="none" stroke="black" points="1182,-1471.49 1182,-1492.49 1432,-1492.49 1432,-1471.49 1182,-1471.49"/>
<text text-anchor="start" x="1271" y="-1479.29" font-family="Helvetica,sans-Serif" font-style="italic" font-size="14.00">TimeClock</text>
<polygon fill="none" stroke="black" points="1182,-1444.49 1182,-1471.49 1432,-1471.49 1432,-1444.49 1182,-1444.49"/>
<text text-anchor="start" x="1188" y="-1455.29" font-family="Helvetica,sans-Serif" font-size="14.00">PK ClockID </text>
<text text-anchor="start" x="1267" y="-1455.29" font-family="Helvetica,sans-Serif" font-size="14.00" fill="#999999">int() NOT NULL</text>
<polygon fill="none" stroke="black" points="1182,-1417.49 1182,-1444.49 1432,-1444.49 1432,-1417.49 1182,-1417.49"/>
<text text-anchor="start" x="1188" y="-1428.29" font-family="Helvetica,sans-Serif" font-size="14.00">FK EmployeeID </text>
<text text-anchor="start" x="1298" y="-1428.29" font-family="Helvetica,sans-Serif" font-size="14.00" fill="#999999">int() NOT NULL</text>
<polygon fill="none" stroke="black" points="1182,-1390.49 1182,-1417.49 1432,-1417.49 1432,-1390.49 1182,-1390.49"/>
<text text-anchor="start" x="1188" y="-1401.29" font-family="Helvetica,sans-Serif" font-size="14.00">ClockInTime </text>
<text text-anchor="start" x="1278" y="-1401.29" font-family="Helvetica,sans-Serif" font-size="14.00" fill="#999999">datetime() NOT NULL</text>
<polygon fill="none" stroke="black" points="1182,-1363.49 1182,-1390.49 1432,-1390.49 1432,-1363.49 1182,-1363.49"/>
<text text-anchor="start" x="1188" y="-1374.29" font-family="Helvetica,sans-Serif" font-size="14.00">ClockOutTime </text>
<text text-anchor="start" x="1290" y="-1374.29" font-family="Helvetica,sans-Serif" font-size="14.00" fill="#999999">datetime()</text>
</g>
<!-- Employee&#45;&gt;TimeClock -->
<g id="edge16" class="edge">
<title>Employee:EmployeeID&#45;&gt;TimeClock:EmployeeID</title>
<path fill="none" stroke="black" d="M1080.62,-851.52C1192.65,-877.83 1059.91,-1403.75 1171.75,-1430.44"/>
<polyline fill="none" stroke="black" points="1071.5,-850.49 1075.97,-851 "/>
<polygon fill="black" stroke="black" points="1076.37,-855.57 1077.37,-846.62 1079.16,-846.82 1078.15,-855.77 1076.37,-855.57"/>
<polyline fill="none" stroke="black" points="1075.97,-851 1080.44,-851.5 "/>
<polygon fill="black" stroke="black" points="1172.06,-1430.48 1180.54,-1435.52 1176.53,-1430.99 1181,-1431.49 1181,-1431.49 1181,-1431.49 1176.53,-1430.99 1181.46,-1427.47 1172.06,-1430.48 1172.06,-1430.48"/>
</g>
<!-- AvailabilityException -->
<g id="node16" class="node">
<title>AvailabilityException</title>
<polygon fill="none" stroke="black" points="1194,-669.49 1194,-690.49 1420,-690.49 1420,-669.49 1194,-669.49"/>
<text text-anchor="start" x="1234.5" y="-677.29" font-family="Helvetica,sans-Serif" font-style="italic" font-size="14.00">AvailabilityException</text>
<polygon fill="none" stroke="black" points="1194,-642.49 1194,-669.49 1420,-669.49 1420,-642.49 1194,-642.49"/>
<text text-anchor="start" x="1200" y="-653.29" font-family="Helvetica,sans-Serif" font-size="14.00">PK ExceptionID </text>
<text text-anchor="start" x="1310" y="-653.29" font-family="Helvetica,sans-Serif" font-size="14.00" fill="#999999">int() NOT NULL</text>
<polygon fill="none" stroke="black" points="1194,-615.49 1194,-642.49 1420,-642.49 1420,-615.49 1194,-615.49"/>
<text text-anchor="start" x="1200" y="-626.29" font-family="Helvetica,sans-Serif" font-size="14.00">FK EmployeeID </text>
<text text-anchor="start" x="1310" y="-626.29" font-family="Helvetica,sans-Serif" font-size="14.00" fill="#999999">int() NOT NULL</text>
<polygon fill="none" stroke="black" points="1194,-588.49 1194,-615.49 1420,-615.49 1420,-588.49 1194,-588.49"/>
<text text-anchor="start" x="1200" y="-599.29" font-family="Helvetica,sans-Serif" font-size="14.00">StartDate </text>
<text text-anchor="start" x="1271" y="-599.29" font-family="Helvetica,sans-Serif" font-size="14.00" fill="#999999">date() NOT NULL</text>
<polygon fill="none" stroke="black" points="1194,-561.49 1194,-588.49 1420,-588.49 1420,-561.49 1194,-561.49"/>
<text text-anchor="start" x="1200" y="-572.29" font-family="Helvetica,sans-Serif" font-size="14.00">EndDate </text>
<text text-anchor="start" x="1264" y="-572.29" font-family="Helvetica,sans-Serif" font-size="14.00" fill="#999999">date() NOT NULL</text>
<polygon fill="none" stroke="black" points="1194,-534.49 1194,-561.49 1420,-561.49 1420,-534.49 1194,-534.49"/>
<text text-anchor="start" x="1200" y="-545.29" font-family="Helvetica,sans-Serif" font-size="14.00">Type </text>
<text text-anchor="start" x="1237" y="-545.29" font-family="Helvetica,sans-Serif" font-size="14.00" fill="#999999">varchar(50) NOT NULL</text>
<polygon fill="none" stroke="black" points="1194,-507.49 1194,-534.49 1420,-534.49 1420,-507.49 1194,-507.49"/>
<text text-anchor="start" x="1200" y="-518.29" font-family="Helvetica,sans-Serif" font-size="14.00">Note </text>
<text text-anchor="start" x="1237" y="-518.29" font-family="Helvetica,sans-Serif" font-size="14.00" fill="#999999">text()</text>
</g>
<!-- Employee&#45;&gt;AvailabilityException -->
<g id="edge17" class="edge">
<title>Employee:EmployeeID&#45;&gt;AvailabilityException:EmployeeID</title>
<path fill="none" stroke="black" d="M1080.52,-849.97C1175.09,-838.5 1089.42,-641.55 1183.94,-630.02"/>
<polyline fill="none" stroke="black" points="1071.5,-850.49 1075.99,-850.23 "/>
<polygon fill="black" stroke="black" points="1077.15,-854.67 1076.63,-845.69 1078.43,-845.59 1078.95,-854.57 1077.15,-854.67"/>
<polyline fill="none" stroke="black" points="1075.99,-850.23 1080.48,-849.97 "/>
<polygon fill="black" stroke="black" points="1184.02,-630.02 1193.24,-633.54 1188.51,-629.76 1193,-629.49 1193,-629.49 1193,-629.49 1188.51,-629.76 1192.76,-625.45 1184.02,-630.02 1184.02,-630.02"/>
</g>
<!-- Patient&#45;&gt;PatientMovement -->
<g id="edge18" class="edge">
<title>Patient:PatientID&#45;&gt;PatientMovement:PatientID</title>
<path fill="none" stroke="black" d="M1097.71,-1268.94C1192.63,-1278.65 1067.81,-1445.46 1154,-1511.49 1261.96,-1594.21 1362.21,-1606.01 1460,-1511.49 1500.39,-1472.45 1442.75,-541.92 1488.95,-460.21"/>
<polyline fill="none" stroke="black" points="1088.5,-1268.49 1092.99,-1268.71 "/>
<polygon fill="black" stroke="black" points="1093.68,-1273.25 1094.11,-1264.26 1095.91,-1264.35 1095.48,-1273.34 1093.68,-1273.25"/>
<polyline fill="none" stroke="black" points="1092.99,-1268.71 1097.49,-1268.93 "/>
<polygon fill="black" stroke="black" points="1489.01,-460.16 1498.55,-457.64 1492.51,-457.33 1496,-454.49 1496,-454.49 1496,-454.49 1492.51,-457.33 1493.45,-451.35 1489.01,-460.16 1489.01,-460.16"/>
</g>
<!-- IdentificationCard&#45;&gt;PatientMovement -->
<g id="edge14" class="edge">
<title>IdentificationCard:CardID&#45;&gt;PatientMovement:CardID</title>
<path fill="none" stroke="black" d="M1423.07,-437.49C1443.92,-437.49 1465.71,-437.49 1486.83,-437.49"/>
<polyline fill="none" stroke="black" points="1414,-437.49 1418.5,-437.49 "/>
<polygon fill="black" stroke="black" points="1419.4,-441.99 1419.4,-432.99 1421.2,-432.99 1421.2,-441.99 1419.4,-441.99"/>
<polyline fill="none" stroke="black" points="1418.5,-437.49 1423,-437.49 "/>
<polygon fill="black" stroke="black" points="1486.83,-437.49 1495.83,-441.54 1491.33,-437.49 1495.83,-437.49 1495.83,-437.49 1495.83,-437.49 1491.33,-437.49 1495.83,-433.44 1486.83,-437.49 1486.83,-437.49"/>
</g>
</g>
</svg>
