<?xml version="1.0" encoding="UTF-8" standalone="no"?>
<!DOCTYPE svg PUBLIC "-//W3C//DTD SVG 1.1//EN"
 "http://www.w3.org/Graphics/SVG/1.1/DTD/svg11.dtd">
<!-- Generated by graphviz version 15.1.0 (20260618.0150)
 -->
<!-- Title: G Pages: 1 -->
<svg width="1817pt" height="1249pt"
 viewBox="0.00 0.00 1817.00 1249.00" xmlns="http://www.w3.org/2000/svg" xmlns:xlink="http://www.w3.org/1999/xlink">
<g id="graph0" class="graph" transform="scale(1 1) rotate(0) translate(14.4 1235.01)">
<title>G</title>
<polygon fill="white" stroke="none" points="-14.4,14.4 -14.4,-1235.01 1802.4,-1235.01 1802.4,14.4 -14.4,14.4"/>
<text xml:space="preserve" text-anchor="middle" x="894" y="-6.45" font-family="Helvetica,sans-Serif" font-size="14.00">Hospital Management System</text>
<!-- Hospital -->
<g id="node1" class="node">
<title>Hospital</title>
<polygon fill="none" stroke="black" points="799.12,-586.62 799.12,-608.38 1009.12,-608.38 1009.12,-586.62 799.12,-586.62"/>
<text xml:space="preserve" text-anchor="start" x="879.75" y="-593.08" font-family="Helvetica,sans-Serif" font-style="italic" font-size="14.00">Hospital</text>
<polygon fill="none" stroke="black" points="799.12,-558.88 799.12,-586.62 1009.12,-586.62 1009.12,-558.88 799.12,-558.88"/>
<text xml:space="preserve" text-anchor="start" x="805.12" y="-568.33" font-family="Helvetica,sans-Serif" font-size="14.00">PK hospital_id </text>
<text xml:space="preserve" text-anchor="start" x="895.12" y="-568.33" font-family="Helvetica,sans-Serif" font-size="14.00" fill="#999999">int() NOT NULL</text>
<polygon fill="none" stroke="black" points="799.12,-531.12 799.12,-558.88 1009.12,-558.88 1009.12,-531.12 799.12,-531.12"/>
<text xml:space="preserve" text-anchor="start" x="805.12" y="-540.58" font-family="Helvetica,sans-Serif" font-size="14.00">name </text>
<text xml:space="preserve" text-anchor="start" x="843.38" y="-540.58" font-family="Helvetica,sans-Serif" font-size="14.00" fill="#999999">varchar(200) NOT NULL</text>
<polygon fill="none" stroke="black" points="799.12,-503.38 799.12,-531.12 1009.12,-531.12 1009.12,-503.38 799.12,-503.38"/>
<text xml:space="preserve" text-anchor="start" x="805.12" y="-512.83" font-family="Helvetica,sans-Serif" font-size="14.00">location </text>
<text xml:space="preserve" text-anchor="start" x="855.38" y="-512.83" font-family="Helvetica,sans-Serif" font-size="14.00" fill="#999999">varchar(200) NOT NULL</text>
</g>
<!-- Department -->
<g id="node2" class="node">
<title>Department</title>
<polygon fill="none" stroke="black" points="1049.25,-685.5 1049.25,-707.25 1268.25,-707.25 1268.25,-685.5 1049.25,-685.5"/>
<text xml:space="preserve" text-anchor="start" x="1123.12" y="-691.95" font-family="Helvetica,sans-Serif" font-style="italic" font-size="14.00">Department</text>
<polygon fill="none" stroke="black" points="1049.25,-657.75 1049.25,-685.5 1268.25,-685.5 1268.25,-657.75 1049.25,-657.75"/>
<text xml:space="preserve" text-anchor="start" x="1055.25" y="-667.2" font-family="Helvetica,sans-Serif" font-size="14.00">PK department_id </text>
<text xml:space="preserve" text-anchor="start" x="1167.75" y="-667.2" font-family="Helvetica,sans-Serif" font-size="14.00" fill="#999999">int() NOT NULL</text>
<polygon fill="none" stroke="black" points="1049.25,-630 1049.25,-657.75 1268.25,-657.75 1268.25,-630 1049.25,-630"/>
<text xml:space="preserve" text-anchor="start" x="1055.25" y="-639.45" font-family="Helvetica,sans-Serif" font-size="14.00">name </text>
<text xml:space="preserve" text-anchor="start" x="1093.5" y="-639.45" font-family="Helvetica,sans-Serif" font-size="14.00" fill="#999999">varchar(100) NOT NULL</text>
<polygon fill="none" stroke="black" points="1049.25,-602.25 1049.25,-630 1268.25,-630 1268.25,-602.25 1049.25,-602.25"/>
<text xml:space="preserve" text-anchor="start" x="1055.25" y="-611.7" font-family="Helvetica,sans-Serif" font-size="14.00">FK hospital_id </text>
<text xml:space="preserve" text-anchor="start" x="1144.5" y="-611.7" font-family="Helvetica,sans-Serif" font-size="14.00" fill="#999999">int() NOT NULL</text>
<polygon fill="none" stroke="black" points="1049.25,-574.5 1049.25,-602.25 1268.25,-602.25 1268.25,-574.5 1049.25,-574.5"/>
<text xml:space="preserve" text-anchor="start" x="1055.25" y="-583.95" font-family="Helvetica,sans-Serif" font-size="14.00">FK coordinator_id </text>
<text xml:space="preserve" text-anchor="start" x="1165.5" y="-583.95" font-family="Helvetica,sans-Serif" font-size="14.00" fill="#999999">int() NOT NULL</text>
</g>
<!-- Hospital&#45;&gt;Department -->
<g id="edge1" class="edge">
<title>Hospital:hospital_id&#45;&gt;Department:hospital_id</title>
<path fill="none" stroke="black" d="M1018.6,-574.84C1030.95,-582.08 1028.34,-606.07 1040.3,-613.74"/>
<polyline fill="none" stroke="black" points="1010.12,-572.75 1014.49,-573.83"/>
<polygon fill="black" stroke="black" points="1014.29,-578.41 1016.45,-569.68 1018.19,-570.11 1016.04,-578.84 1014.29,-578.41"/>
<polyline fill="none" stroke="black" points="1014.49,-573.83 1018.86,-574.91"/>
<polygon fill="black" stroke="black" points="1040.23,-613.72 1047.88,-619.95 1044.9,-614.97 1048.6,-615.95 1048.6,-615.95 1048.6,-615.95 1044.9,-614.97 1049.97,-612.13 1040.23,-613.72"/>
</g>
<!-- Employee -->
<g id="node4" class="node">
<title>Employee</title>
<polygon fill="none" stroke="black" points="1304.25,-261.25 1304.25,-283 1541.25,-283 1541.25,-261.25 1304.25,-261.25"/>
<text xml:space="preserve" text-anchor="start" x="1392.38" y="-267.7" font-family="Helvetica,sans-Serif" font-style="italic" font-size="14.00">Employee</text>
<polygon fill="none" stroke="black" points="1304.25,-233.5 1304.25,-261.25 1541.25,-261.25 1541.25,-233.5 1304.25,-233.5"/>
<text xml:space="preserve" text-anchor="start" x="1310.25" y="-242.95" font-family="Helvetica,sans-Serif" font-size="14.00">PK person_id </text>
<text xml:space="preserve" text-anchor="start" x="1395" y="-242.95" font-family="Helvetica,sans-Serif" font-size="14.00" fill="#999999">int() NOT NULL</text>
<polygon fill="none" stroke="black" points="1304.25,-205.75 1304.25,-233.5 1541.25,-233.5 1541.25,-205.75 1304.25,-205.75"/>
<text xml:space="preserve" text-anchor="start" x="1310.25" y="-215.2" font-family="Helvetica,sans-Serif" font-size="14.00">job_role </text>
<text xml:space="preserve" text-anchor="start" x="1362" y="-215.2" font-family="Helvetica,sans-Serif" font-size="14.00" fill="#999999">varchar(100) NOT NULL</text>
<polygon fill="none" stroke="black" points="1304.25,-178 1304.25,-205.75 1541.25,-205.75 1541.25,-178 1304.25,-178"/>
<text xml:space="preserve" text-anchor="start" x="1310.25" y="-187.45" font-family="Helvetica,sans-Serif" font-size="14.00">contract_type </text>
<text xml:space="preserve" text-anchor="start" x="1395" y="-187.45" font-family="Helvetica,sans-Serif" font-size="14.00" fill="#999999">varchar(50) NOT NULL</text>
<polygon fill="none" stroke="black" points="1304.25,-150.25 1304.25,-178 1541.25,-178 1541.25,-150.25 1304.25,-150.25"/>
<text xml:space="preserve" text-anchor="start" x="1310.25" y="-159.7" font-family="Helvetica,sans-Serif" font-size="14.00">is_researcher </text>
<text xml:space="preserve" text-anchor="start" x="1395.75" y="-159.7" font-family="Helvetica,sans-Serif" font-size="14.00" fill="#999999">boolean</text>
<polygon fill="none" stroke="black" points="1304.25,-122.5 1304.25,-150.25 1541.25,-150.25 1541.25,-122.5 1304.25,-122.5"/>
<text xml:space="preserve" text-anchor="start" x="1310.25" y="-131.95" font-family="Helvetica,sans-Serif" font-size="14.00">is_resident </text>
<text xml:space="preserve" text-anchor="start" x="1379.25" y="-131.95" font-family="Helvetica,sans-Serif" font-size="14.00" fill="#999999">boolean</text>
<polygon fill="none" stroke="black" points="1304.25,-94.75 1304.25,-122.5 1541.25,-122.5 1541.25,-94.75 1304.25,-94.75"/>
<text xml:space="preserve" text-anchor="start" x="1310.25" y="-104.2" font-family="Helvetica,sans-Serif" font-size="14.00">FK supervisor_id </text>
<text xml:space="preserve" text-anchor="start" x="1415.25" y="-104.2" font-family="Helvetica,sans-Serif" font-size="14.00" fill="#999999">int()</text>
</g>
<!-- Department&#45;&gt;Employee -->
<g id="edge2" class="edge">
<title>Department:coordinator_id&#45;&gt;Employee:person_id</title>
<path fill="none" stroke="black" d="M1277.04,-586.54C1332.09,-560.96 1240.67,-276.03 1295.12,-249.37"/>
<polyline fill="none" stroke="black" points="1268.25,-588.38 1272.65,-587.46"/>
<polygon fill="black" stroke="black" points="1274.46,-591.68 1272.62,-582.87 1274.38,-582.5 1276.22,-591.31 1274.46,-591.68"/>
<polyline fill="none" stroke="black" points="1272.65,-587.46 1277.06,-586.54"/>
<polygon fill="black" stroke="black" points="1295.13,-249.37 1304.79,-251.4 1299.85,-248.34 1303.6,-247.52 1303.6,-247.52 1303.6,-247.52 1299.85,-248.34 1303.06,-243.49 1295.13,-249.37"/>
</g>
<!-- Person -->
<g id="node3" class="node">
<title>Person</title>
<polygon fill="none" stroke="black" points="267,-869.25 267,-891 489.75,-891 489.75,-869.25 267,-869.25"/>
<text xml:space="preserve" text-anchor="start" x="357" y="-875.7" font-family="Helvetica,sans-Serif" font-style="italic" font-size="14.00">Person</text>
<polygon fill="none" stroke="black" points="267,-841.5 267,-869.25 489.75,-869.25 489.75,-841.5 267,-841.5"/>
<text xml:space="preserve" text-anchor="start" x="273" y="-850.95" font-family="Helvetica,sans-Serif" font-size="14.00">PK person_id </text>
<text xml:space="preserve" text-anchor="start" x="357.75" y="-850.95" font-family="Helvetica,sans-Serif" font-size="14.00" fill="#999999">int() NOT NULL</text>
<polygon fill="none" stroke="black" points="267,-813.75 267,-841.5 489.75,-841.5 489.75,-813.75 267,-813.75"/>
<text xml:space="preserve" text-anchor="start" x="273" y="-823.2" font-family="Helvetica,sans-Serif" font-size="14.00">full_name </text>
<text xml:space="preserve" text-anchor="start" x="336" y="-823.2" font-family="Helvetica,sans-Serif" font-size="14.00" fill="#999999">varchar(200) NOT NULL</text>
<polygon fill="none" stroke="black" points="267,-786 267,-813.75 489.75,-813.75 489.75,-786 267,-786"/>
<text xml:space="preserve" text-anchor="start" x="273" y="-795.45" font-family="Helvetica,sans-Serif" font-size="14.00">cpf </text>
<text xml:space="preserve" text-anchor="start" x="294.75" y="-795.45" font-family="Helvetica,sans-Serif" font-size="14.00" fill="#999999">varchar(11) NOT NULL</text>
<polygon fill="none" stroke="black" points="267,-758.25 267,-786 489.75,-786 489.75,-758.25 267,-758.25"/>
<text xml:space="preserve" text-anchor="start" x="273" y="-767.7" font-family="Helvetica,sans-Serif" font-size="14.00">rg </text>
<text xml:space="preserve" text-anchor="start" x="288.75" y="-767.7" font-family="Helvetica,sans-Serif" font-size="14.00" fill="#999999">varchar(20) NOT NULL</text>
<polygon fill="none" stroke="black" points="267,-730.5 267,-758.25 489.75,-758.25 489.75,-730.5 267,-730.5"/>
<text xml:space="preserve" text-anchor="start" x="273" y="-739.95" font-family="Helvetica,sans-Serif" font-size="14.00">birth_date </text>
<text xml:space="preserve" text-anchor="start" x="336.75" y="-739.95" font-family="Helvetica,sans-Serif" font-size="14.00" fill="#999999">date() NOT NULL</text>
<polygon fill="none" stroke="black" points="267,-702.75 267,-730.5 489.75,-730.5 489.75,-702.75 267,-702.75"/>
<text xml:space="preserve" text-anchor="start" x="273" y="-712.2" font-family="Helvetica,sans-Serif" font-size="14.00">type </text>
<text xml:space="preserve" text-anchor="start" x="302.25" y="-712.2" font-family="Helvetica,sans-Serif" font-size="14.00" fill="#999999">varchar(50) NOT NULL</text>
</g>
<!-- Person&#45;&gt;Employee -->
<g id="edge3" class="edge">
<title>Person:person_id&#45;&gt;Employee:person_id</title>
<path fill="none" stroke="black" d="M497.64,-851.24C534.74,-807.77 492.44,-435.86 525.75,-401.88 757.88,-165.03 999.27,-521.86 1268.25,-327.88 1297.06,-307.1 1271.03,-257.87 1295.07,-248.82"/>
<polyline fill="none" stroke="black" points="489.75,-855.38 493.73,-853.28"/>
<polygon fill="black" stroke="black" points="496.62,-856.85 492.44,-848.88 494.04,-848.04 498.22,-856.01 496.62,-856.85"/>
<polyline fill="none" stroke="black" points="493.73,-853.28 497.72,-851.19"/>
<polygon fill="black" stroke="black" points="1295.03,-248.82 1304.55,-251.43 1299.8,-248.07 1303.59,-247.48 1303.59,-247.48 1303.59,-247.48 1299.8,-248.07 1303.29,-243.43 1295.03,-248.82"/>
</g>
<!-- Patient -->
<g id="node5" class="node">
<title>Patient</title>
<polygon fill="none" stroke="black" points="526.5,-755.62 526.5,-777.38 758.25,-777.38 758.25,-755.62 526.5,-755.62"/>
<text xml:space="preserve" text-anchor="start" x="621.38" y="-762.08" font-family="Helvetica,sans-Serif" font-style="italic" font-size="14.00">Patient</text>
<polygon fill="none" stroke="black" points="526.5,-727.88 526.5,-755.62 758.25,-755.62 758.25,-727.88 526.5,-727.88"/>
<text xml:space="preserve" text-anchor="start" x="532.5" y="-737.33" font-family="Helvetica,sans-Serif" font-size="14.00">PK person_id </text>
<text xml:space="preserve" text-anchor="start" x="617.25" y="-737.33" font-family="Helvetica,sans-Serif" font-size="14.00" fill="#999999">int() NOT NULL</text>
<polygon fill="none" stroke="black" points="526.5,-700.12 526.5,-727.88 758.25,-727.88 758.25,-700.12 526.5,-700.12"/>
<text xml:space="preserve" text-anchor="start" x="532.5" y="-709.58" font-family="Helvetica,sans-Serif" font-size="14.00">wristband_id </text>
<text xml:space="preserve" text-anchor="start" x="612" y="-709.58" font-family="Helvetica,sans-Serif" font-size="14.00" fill="#999999">varchar(50) NOT NULL</text>
<polygon fill="none" stroke="black" points="526.5,-672.38 526.5,-700.12 758.25,-700.12 758.25,-672.38 526.5,-672.38"/>
<text xml:space="preserve" text-anchor="start" x="532.5" y="-681.83" font-family="Helvetica,sans-Serif" font-size="14.00">status </text>
<text xml:space="preserve" text-anchor="start" x="572.25" y="-681.83" font-family="Helvetica,sans-Serif" font-size="14.00" fill="#999999">varchar(50) NOT NULL</text>
</g>
<!-- Person&#45;&gt;Patient -->
<g id="edge4" class="edge">
<title>Person:person_id&#45;&gt;Patient:person_id</title>
<path fill="none" stroke="black" d="M498.3,-854.1C531.92,-842.49 483.83,-755.36 516.81,-743.17"/>
<polyline fill="none" stroke="black" points="489.75,-855.38 494.2,-854.71"/>
<polygon fill="black" stroke="black" points="495.76,-859.03 494.43,-850.13 496.21,-849.86 497.54,-858.76 495.76,-859.03"/>
<polyline fill="none" stroke="black" points="494.2,-854.71 498.65,-854.05"/>
<polygon fill="black" stroke="black" points="516.53,-743.21 526.05,-745.8 521.31,-742.45 525.09,-741.85 525.09,-741.85 525.09,-741.85 521.31,-742.45 524.79,-737.8 516.53,-743.21"/>
</g>
<!-- Visitor -->
<g id="node6" class="node">
<title>Visitor</title>
<polygon fill="none" stroke="black" points="525.75,-1149.62 525.75,-1171.38 759,-1171.38 759,-1149.62 525.75,-1149.62"/>
<text xml:space="preserve" text-anchor="start" x="623.62" y="-1156.08" font-family="Helvetica,sans-Serif" font-style="italic" font-size="14.00">Visitor</text>
<polygon fill="none" stroke="black" points="525.75,-1121.88 525.75,-1149.62 759,-1149.62 759,-1121.88 525.75,-1121.88"/>
<text xml:space="preserve" text-anchor="start" x="531.75" y="-1131.33" font-family="Helvetica,sans-Serif" font-size="14.00">PK person_id </text>
<text xml:space="preserve" text-anchor="start" x="616.5" y="-1131.33" font-family="Helvetica,sans-Serif" font-size="14.00" fill="#999999">int() NOT NULL</text>
<polygon fill="none" stroke="black" points="525.75,-1094.12 525.75,-1121.88 759,-1121.88 759,-1094.12 525.75,-1094.12"/>
<text xml:space="preserve" text-anchor="start" x="531.75" y="-1103.58" font-family="Helvetica,sans-Serif" font-size="14.00">visitor_type </text>
<text xml:space="preserve" text-anchor="start" x="603.75" y="-1103.58" font-family="Helvetica,sans-Serif" font-size="14.00" fill="#999999">varchar(100) NOT NULL</text>
<polygon fill="none" stroke="black" points="525.75,-1066.38 525.75,-1094.12 759,-1094.12 759,-1066.38 525.75,-1066.38"/>
<text xml:space="preserve" text-anchor="start" x="531.75" y="-1075.83" font-family="Helvetica,sans-Serif" font-size="14.00">access_level </text>
<text xml:space="preserve" text-anchor="start" x="612.75" y="-1075.83" font-family="Helvetica,sans-Serif" font-size="14.00" fill="#999999">varchar(50) NOT NULL</text>
</g>
<!-- Person&#45;&gt;Visitor -->
<g id="edge5" class="edge">
<title>Person:person_id&#45;&gt;Visitor:person_id</title>
<path fill="none" stroke="black" d="M498.46,-857.63C540.9,-882.61 474.88,-1107.04 516.65,-1133.25"/>
<polyline fill="none" stroke="black" points="489.75,-855.38 494.11,-856.5"/>
<polygon fill="black" stroke="black" points="493.85,-861.09 496.11,-852.37 497.85,-852.82 495.59,-861.54 493.85,-861.09"/>
<polyline fill="none" stroke="black" points="494.11,-856.5 498.46,-857.63"/>
<polygon fill="black" stroke="black" points="516.75,-1133.28 524.36,-1139.57 521.41,-1134.56 525.1,-1135.57 525.1,-1135.57 525.1,-1135.57 521.41,-1134.56 526.5,-1131.76 516.75,-1133.28"/>
</g>
<!-- Address -->
<g id="node7" class="node">
<title>Address</title>
<polygon fill="none" stroke="black" points="528.38,-1008.12 528.38,-1029.88 756.38,-1029.88 756.38,-1008.12 528.38,-1008.12"/>
<text xml:space="preserve" text-anchor="start" x="617.62" y="-1014.58" font-family="Helvetica,sans-Serif" font-style="italic" font-size="14.00">Address</text>
<polygon fill="none" stroke="black" points="528.38,-980.38 528.38,-1008.12 756.38,-1008.12 756.38,-980.38 528.38,-980.38"/>
<text xml:space="preserve" text-anchor="start" x="534.38" y="-989.83" font-family="Helvetica,sans-Serif" font-size="14.00">PK address_id </text>
<text xml:space="preserve" text-anchor="start" x="625.88" y="-989.83" font-family="Helvetica,sans-Serif" font-size="14.00" fill="#999999">int() NOT NULL</text>
<polygon fill="none" stroke="black" points="528.38,-952.62 528.38,-980.38 756.38,-980.38 756.38,-952.62 528.38,-952.62"/>
<text xml:space="preserve" text-anchor="start" x="534.38" y="-962.08" font-family="Helvetica,sans-Serif" font-size="14.00">FK person_id </text>
<text xml:space="preserve" text-anchor="start" x="618.38" y="-962.08" font-family="Helvetica,sans-Serif" font-size="14.00" fill="#999999">int() NOT NULL</text>
<polygon fill="none" stroke="black" points="528.38,-924.88 528.38,-952.62 756.38,-952.62 756.38,-924.88 528.38,-924.88"/>
<text xml:space="preserve" text-anchor="start" x="534.38" y="-934.33" font-family="Helvetica,sans-Serif" font-size="14.00">street </text>
<text xml:space="preserve" text-anchor="start" x="571.88" y="-934.33" font-family="Helvetica,sans-Serif" font-size="14.00" fill="#999999">varchar(200)</text>
<polygon fill="none" stroke="black" points="528.38,-897.12 528.38,-924.88 756.38,-924.88 756.38,-897.12 528.38,-897.12"/>
<text xml:space="preserve" text-anchor="start" x="534.38" y="-906.58" font-family="Helvetica,sans-Serif" font-size="14.00">city </text>
<text xml:space="preserve" text-anchor="start" x="558.38" y="-906.58" font-family="Helvetica,sans-Serif" font-size="14.00" fill="#999999">varchar(100)</text>
<polygon fill="none" stroke="black" points="528.38,-869.38 528.38,-897.12 756.38,-897.12 756.38,-869.38 528.38,-869.38"/>
<text xml:space="preserve" text-anchor="start" x="534.38" y="-878.83" font-family="Helvetica,sans-Serif" font-size="14.00">state </text>
<text xml:space="preserve" text-anchor="start" x="567.38" y="-878.83" font-family="Helvetica,sans-Serif" font-size="14.00" fill="#999999">varchar(100)</text>
<polygon fill="none" stroke="black" points="528.38,-841.62 528.38,-869.38 756.38,-869.38 756.38,-841.62 528.38,-841.62"/>
<text xml:space="preserve" text-anchor="start" x="534.38" y="-851.08" font-family="Helvetica,sans-Serif" font-size="14.00">country </text>
<text xml:space="preserve" text-anchor="start" x="582.38" y="-851.08" font-family="Helvetica,sans-Serif" font-size="14.00" fill="#999999">varchar(100)</text>
<polygon fill="none" stroke="black" points="528.38,-813.88 528.38,-841.62 756.38,-841.62 756.38,-813.88 528.38,-813.88"/>
<text xml:space="preserve" text-anchor="start" x="534.38" y="-823.33" font-family="Helvetica,sans-Serif" font-size="14.00">last_updated </text>
<text xml:space="preserve" text-anchor="start" x="615.38" y="-823.33" font-family="Helvetica,sans-Serif" font-size="14.00" fill="#999999">timestamp NOT NULL</text>
</g>
<!-- Person&#45;&gt;Address -->
<g id="edge6" class="edge">
<title>Person:person_id&#45;&gt;Address:person_id</title>
<path fill="none" stroke="black" d="M498.64,-856.78C530.97,-868.69 486.34,-952.59 518.17,-964.97"/>
<polyline fill="none" stroke="black" points="489.75,-855.38 494.19,-856.08"/>
<polygon fill="black" stroke="black" points="494.38,-860.66 495.79,-851.77 497.56,-852.05 496.16,-860.94 494.38,-860.66"/>
<polyline fill="none" stroke="black" points="494.19,-856.08 498.64,-856.78"/>
<polygon fill="black" stroke="black" points="518.17,-964.97 526.38,-970.44 522.94,-965.76 526.72,-966.39 526.72,-966.39 526.72,-966.39 522.94,-965.76 527.71,-962.45 518.17,-964.97"/>
</g>
<!-- IdentificationCard -->
<g id="node8" class="node">
<title>IdentificationCard</title>
<polygon fill="none" stroke="black" points="534.75,-614.12 534.75,-635.88 750,-635.88 750,-614.12 534.75,-614.12"/>
<text xml:space="preserve" text-anchor="start" x="589.88" y="-620.58" font-family="Helvetica,sans-Serif" font-style="italic" font-size="14.00">IdentificationCard</text>
<polygon fill="none" stroke="black" points="534.75,-586.38 534.75,-614.12 750,-614.12 750,-586.38 534.75,-586.38"/>
<text xml:space="preserve" text-anchor="start" x="540.75" y="-595.83" font-family="Helvetica,sans-Serif" font-size="14.00">PK card_id </text>
<text xml:space="preserve" text-anchor="start" x="610.5" y="-595.83" font-family="Helvetica,sans-Serif" font-size="14.00" fill="#999999">int() NOT NULL</text>
<polygon fill="none" stroke="black" points="534.75,-558.62 534.75,-586.38 750,-586.38 750,-558.62 534.75,-558.62"/>
<text xml:space="preserve" text-anchor="start" x="540.75" y="-568.08" font-family="Helvetica,sans-Serif" font-size="14.00">FK person_id </text>
<text xml:space="preserve" text-anchor="start" x="624.75" y="-568.08" font-family="Helvetica,sans-Serif" font-size="14.00" fill="#999999">int() NOT NULL</text>
<polygon fill="none" stroke="black" points="534.75,-530.88 534.75,-558.62 750,-558.62 750,-530.88 534.75,-530.88"/>
<text xml:space="preserve" text-anchor="start" x="540.75" y="-540.33" font-family="Helvetica,sans-Serif" font-size="14.00">issue_date </text>
<text xml:space="preserve" text-anchor="start" x="609.75" y="-540.33" font-family="Helvetica,sans-Serif" font-size="14.00" fill="#999999">date() NOT NULL</text>
<polygon fill="none" stroke="black" points="534.75,-503.12 534.75,-530.88 750,-530.88 750,-503.12 534.75,-503.12"/>
<text xml:space="preserve" text-anchor="start" x="540.75" y="-512.58" font-family="Helvetica,sans-Serif" font-size="14.00">expiry_date </text>
<text xml:space="preserve" text-anchor="start" x="614.25" y="-512.58" font-family="Helvetica,sans-Serif" font-size="14.00" fill="#999999">date() NOT NULL</text>
<polygon fill="none" stroke="black" points="534.75,-475.38 534.75,-503.12 750,-503.12 750,-475.38 534.75,-475.38"/>
<text xml:space="preserve" text-anchor="start" x="540.75" y="-484.82" font-family="Helvetica,sans-Serif" font-size="14.00">card_type </text>
<text xml:space="preserve" text-anchor="start" x="603.75" y="-484.82" font-family="Helvetica,sans-Serif" font-size="14.00" fill="#999999">varchar(50) NOT NULL</text>
<polygon fill="none" stroke="black" points="534.75,-447.62 534.75,-475.38 750,-475.38 750,-447.62 534.75,-447.62"/>
<text xml:space="preserve" text-anchor="start" x="540.75" y="-457.07" font-family="Helvetica,sans-Serif" font-size="14.00">is_active </text>
<text xml:space="preserve" text-anchor="start" x="597" y="-457.07" font-family="Helvetica,sans-Serif" font-size="14.00" fill="#999999">boolean NOT NULL</text>
<polygon fill="none" stroke="black" points="534.75,-419.88 534.75,-447.62 750,-447.62 750,-419.88 534.75,-419.88"/>
<text xml:space="preserve" text-anchor="start" x="540.75" y="-429.32" font-family="Helvetica,sans-Serif" font-size="14.00">photo </text>
<text xml:space="preserve" text-anchor="start" x="578.25" y="-429.32" font-family="Helvetica,sans-Serif" font-size="14.00" fill="#999999">varchar(500)</text>
</g>
<!-- Person&#45;&gt;IdentificationCard -->
<g id="edge7" class="edge">
<title>Person:person_id&#45;&gt;IdentificationCard:person_id</title>
<path fill="none" stroke="black" d="M498.34,-853.26C542.63,-828.84 481.13,-600.64 524.72,-574.87"/>
<polyline fill="none" stroke="black" points="489.75,-855.38 494.12,-854.3"/>
<polygon fill="black" stroke="black" points="496.07,-858.45 493.92,-849.72 495.67,-849.29 497.82,-858.02 496.07,-858.45"/>
<polyline fill="none" stroke="black" points="494.12,-854.3 498.49,-853.22"/>
<polygon fill="black" stroke="black" points="524.72,-574.86 534.45,-576.5 529.4,-573.64 533.1,-572.67 533.1,-572.67 533.1,-572.67 529.4,-573.64 532.4,-568.67 524.72,-574.86"/>
</g>
<!-- WorkShift -->
<g id="node9" class="node">
<title>WorkShift</title>
<polygon fill="none" stroke="black" points="1577.25,-386.38 1577.25,-408.12 1788,-408.12 1788,-386.38 1577.25,-386.38"/>
<text xml:space="preserve" text-anchor="start" x="1653" y="-392.82" font-family="Helvetica,sans-Serif" font-style="italic" font-size="14.00">WorkShift</text>
<polygon fill="none" stroke="black" points="1577.25,-358.62 1577.25,-386.38 1788,-386.38 1788,-358.62 1577.25,-358.62"/>
<text xml:space="preserve" text-anchor="start" x="1583.25" y="-368.07" font-family="Helvetica,sans-Serif" font-size="14.00">PK shift_id </text>
<text xml:space="preserve" text-anchor="start" x="1651.5" y="-368.07" font-family="Helvetica,sans-Serif" font-size="14.00" fill="#999999">int() NOT NULL</text>
<polygon fill="none" stroke="black" points="1577.25,-330.88 1577.25,-358.62 1788,-358.62 1788,-330.88 1577.25,-330.88"/>
<text xml:space="preserve" text-anchor="start" x="1583.25" y="-340.32" font-family="Helvetica,sans-Serif" font-size="14.00">FK employee_id </text>
<text xml:space="preserve" text-anchor="start" x="1685.25" y="-340.32" font-family="Helvetica,sans-Serif" font-size="14.00" fill="#999999">int() NOT NULL</text>
<polygon fill="none" stroke="black" points="1577.25,-303.12 1577.25,-330.88 1788,-330.88 1788,-303.12 1577.25,-303.12"/>
<text xml:space="preserve" text-anchor="start" x="1583.25" y="-312.57" font-family="Helvetica,sans-Serif" font-size="14.00">start_time </text>
<text xml:space="preserve" text-anchor="start" x="1647" y="-312.57" font-family="Helvetica,sans-Serif" font-size="14.00" fill="#999999">timestamp NOT NULL</text>
<polygon fill="none" stroke="black" points="1577.25,-275.38 1577.25,-303.12 1788,-303.12 1788,-275.38 1577.25,-275.38"/>
<text xml:space="preserve" text-anchor="start" x="1583.25" y="-284.82" font-family="Helvetica,sans-Serif" font-size="14.00">end_time </text>
<text xml:space="preserve" text-anchor="start" x="1643.25" y="-284.82" font-family="Helvetica,sans-Serif" font-size="14.00" fill="#999999">timestamp NOT NULL</text>
<polygon fill="none" stroke="black" points="1577.25,-247.62 1577.25,-275.38 1788,-275.38 1788,-247.62 1577.25,-247.62"/>
<text xml:space="preserve" text-anchor="start" x="1583.25" y="-257.07" font-family="Helvetica,sans-Serif" font-size="14.00">date </text>
<text xml:space="preserve" text-anchor="start" x="1613.25" y="-257.07" font-family="Helvetica,sans-Serif" font-size="14.00" fill="#999999">date() NOT NULL</text>
</g>
<!-- Employee&#45;&gt;WorkShift -->
<g id="edge8" class="edge">
<title>Employee:person_id&#45;&gt;WorkShift:employee_id</title>
<path fill="none" stroke="black" d="M1549.91,-248.9C1577.05,-260.23 1541.73,-330.93 1568.08,-343"/>
<polyline fill="none" stroke="black" points="1541.25,-247.38 1545.68,-248.16"/>
<polygon fill="black" stroke="black" points="1545.79,-252.75 1547.35,-243.88 1549.12,-244.2 1547.56,-253.06 1545.79,-252.75"/>
<polyline fill="none" stroke="black" points="1545.68,-248.16 1550.11,-248.94"/>
<polygon fill="black" stroke="black" points="1568.08,-343 1576.16,-348.67 1572.83,-343.91 1576.59,-344.62 1576.59,-344.62 1576.59,-344.62 1572.83,-343.91 1577.68,-340.71 1568.08,-343"/>
</g>
<!-- AvailabilityException -->
<g id="node10" class="node">
<title>AvailabilityException</title>
<polygon fill="none" stroke="black" points="1578.38,-190.25 1578.38,-212 1786.88,-212 1786.88,-190.25 1578.38,-190.25"/>
<text xml:space="preserve" text-anchor="start" x="1621.12" y="-196.7" font-family="Helvetica,sans-Serif" font-style="italic" font-size="14.00">AvailabilityException</text>
<polygon fill="none" stroke="black" points="1578.38,-162.5 1578.38,-190.25 1786.88,-190.25 1786.88,-162.5 1578.38,-162.5"/>
<text xml:space="preserve" text-anchor="start" x="1584.38" y="-171.95" font-family="Helvetica,sans-Serif" font-size="14.00">PK exception_id </text>
<text xml:space="preserve" text-anchor="start" x="1685.62" y="-171.95" font-family="Helvetica,sans-Serif" font-size="14.00" fill="#999999">int() NOT NULL</text>
<polygon fill="none" stroke="black" points="1578.38,-134.75 1578.38,-162.5 1786.88,-162.5 1786.88,-134.75 1578.38,-134.75"/>
<text xml:space="preserve" text-anchor="start" x="1584.38" y="-144.2" font-family="Helvetica,sans-Serif" font-size="14.00">FK employee_id </text>
<text xml:space="preserve" text-anchor="start" x="1686.38" y="-144.2" font-family="Helvetica,sans-Serif" font-size="14.00" fill="#999999">int() NOT NULL</text>
<polygon fill="none" stroke="black" points="1578.38,-107 1578.38,-134.75 1786.88,-134.75 1786.88,-107 1578.38,-107"/>
<text xml:space="preserve" text-anchor="start" x="1584.38" y="-116.45" font-family="Helvetica,sans-Serif" font-size="14.00">start_date </text>
<text xml:space="preserve" text-anchor="start" x="1648.12" y="-116.45" font-family="Helvetica,sans-Serif" font-size="14.00" fill="#999999">date() NOT NULL</text>
<polygon fill="none" stroke="black" points="1578.38,-79.25 1578.38,-107 1786.88,-107 1786.88,-79.25 1578.38,-79.25"/>
<text xml:space="preserve" text-anchor="start" x="1584.38" y="-88.7" font-family="Helvetica,sans-Serif" font-size="14.00">end_date </text>
<text xml:space="preserve" text-anchor="start" x="1644.38" y="-88.7" font-family="Helvetica,sans-Serif" font-size="14.00" fill="#999999">date() NOT NULL</text>
<polygon fill="none" stroke="black" points="1578.38,-51.5 1578.38,-79.25 1786.88,-79.25 1786.88,-51.5 1578.38,-51.5"/>
<text xml:space="preserve" text-anchor="start" x="1584.38" y="-60.95" font-family="Helvetica,sans-Serif" font-size="14.00">type </text>
<text xml:space="preserve" text-anchor="start" x="1613.62" y="-60.95" font-family="Helvetica,sans-Serif" font-size="14.00" fill="#999999">varchar(50) NOT NULL</text>
<polygon fill="none" stroke="black" points="1578.38,-23.75 1578.38,-51.5 1786.88,-51.5 1786.88,-23.75 1578.38,-23.75"/>
<text xml:space="preserve" text-anchor="start" x="1584.38" y="-33.2" font-family="Helvetica,sans-Serif" font-size="14.00">note </text>
<text xml:space="preserve" text-anchor="start" x="1614.38" y="-33.2" font-family="Helvetica,sans-Serif" font-size="14.00" fill="#999999">text</text>
</g>
<!-- Employee&#45;&gt;AvailabilityException -->
<g id="edge9" class="edge">
<title>Employee:person_id&#45;&gt;AvailabilityException:employee_id</title>
<path fill="none" stroke="black" d="M1550.02,-245.82C1577.58,-234.29 1541.14,-162.03 1568.44,-150.25"/>
<polyline fill="none" stroke="black" points="1541.25,-247.38 1545.68,-246.59"/>
<polygon fill="black" stroke="black" points="1547.35,-250.87 1545.78,-242 1547.56,-241.69 1549.12,-250.55 1547.35,-250.87"/>
<polyline fill="none" stroke="black" points="1545.68,-246.59 1550.11,-245.81"/>
<polygon fill="black" stroke="black" points="1568.19,-150.29 1577.77,-152.67 1572.95,-149.43 1576.72,-148.74 1576.72,-148.74 1576.72,-148.74 1572.95,-149.43 1576.32,-144.7 1568.19,-150.29"/>
</g>
<!-- PatientMovement -->
<g id="node12" class="node">
<title>PatientMovement</title>
<polygon fill="none" stroke="black" points="795,-783.38 795,-805.12 1013.25,-805.12 1013.25,-783.38 795,-783.38"/>
<text xml:space="preserve" text-anchor="start" x="850.88" y="-789.83" font-family="Helvetica,sans-Serif" font-style="italic" font-size="14.00">PatientMovement</text>
<polygon fill="none" stroke="black" points="795,-755.62 795,-783.38 1013.25,-783.38 1013.25,-755.62 795,-755.62"/>
<text xml:space="preserve" text-anchor="start" x="801" y="-765.08" font-family="Helvetica,sans-Serif" font-size="14.00">PK movement_id </text>
<text xml:space="preserve" text-anchor="start" x="909" y="-765.08" font-family="Helvetica,sans-Serif" font-size="14.00" fill="#999999">int() NOT NULL</text>
<polygon fill="none" stroke="black" points="795,-727.88 795,-755.62 1013.25,-755.62 1013.25,-727.88 795,-727.88"/>
<text xml:space="preserve" text-anchor="start" x="801" y="-737.33" font-family="Helvetica,sans-Serif" font-size="14.00">FK patient_id </text>
<text xml:space="preserve" text-anchor="start" x="884.25" y="-737.33" font-family="Helvetica,sans-Serif" font-size="14.00" fill="#999999">int() NOT NULL</text>
<polygon fill="none" stroke="black" points="795,-700.12 795,-727.88 1013.25,-727.88 1013.25,-700.12 795,-700.12"/>
<text xml:space="preserve" text-anchor="start" x="801" y="-709.58" font-family="Helvetica,sans-Serif" font-size="14.00">FK department_id </text>
<text xml:space="preserve" text-anchor="start" x="912.75" y="-709.58" font-family="Helvetica,sans-Serif" font-size="14.00" fill="#999999">int() NOT NULL</text>
<polygon fill="none" stroke="black" points="795,-672.38 795,-700.12 1013.25,-700.12 1013.25,-672.38 795,-672.38"/>
<text xml:space="preserve" text-anchor="start" x="801" y="-681.83" font-family="Helvetica,sans-Serif" font-size="14.00">start_time </text>
<text xml:space="preserve" text-anchor="start" x="864.75" y="-681.83" font-family="Helvetica,sans-Serif" font-size="14.00" fill="#999999">timestamp NOT NULL</text>
<polygon fill="none" stroke="black" points="795,-644.62 795,-672.38 1013.25,-672.38 1013.25,-644.62 795,-644.62"/>
<text xml:space="preserve" text-anchor="start" x="801" y="-654.08" font-family="Helvetica,sans-Serif" font-size="14.00">end_time </text>
<text xml:space="preserve" text-anchor="start" x="861" y="-654.08" font-family="Helvetica,sans-Serif" font-size="14.00" fill="#999999">timestamp NOT NULL</text>
</g>
<!-- Patient&#45;&gt;PatientMovement -->
<g id="edge13" class="edge">
<title>Patient:person_id&#45;&gt;PatientMovement:patient_id</title>
<path fill="none" stroke="black" d="M767.75,-741.75C774.56,-741.75 779.13,-741.75 785.86,-741.75"/>
<polyline fill="none" stroke="black" points="759,-741.75 763.5,-741.75"/>
<polygon fill="black" stroke="black" points="764.4,-746.25 764.4,-737.25 766.2,-737.25 766.2,-746.25 764.4,-746.25"/>
<polyline fill="none" stroke="black" points="763.5,-741.75 768,-741.75"/>
<polygon fill="black" stroke="black" points="785.67,-741.75 794.67,-745.8 790.5,-741.75 794.33,-741.75 794.33,-741.75 794.33,-741.75 790.5,-741.75 794.67,-737.7 785.67,-741.75"/>
</g>
<!-- ShiftSwap -->
<g id="node11" class="node">
<title>ShiftSwap</title>
<polygon fill="none" stroke="black" points="1050.38,-288.25 1050.38,-310 1267.12,-310 1267.12,-288.25 1050.38,-288.25"/>
<text xml:space="preserve" text-anchor="start" x="1128.38" y="-294.7" font-family="Helvetica,sans-Serif" font-style="italic" font-size="14.00">ShiftSwap</text>
<polygon fill="none" stroke="black" points="1050.38,-260.5 1050.38,-288.25 1267.12,-288.25 1267.12,-260.5 1050.38,-260.5"/>
<text xml:space="preserve" text-anchor="start" x="1056.38" y="-269.95" font-family="Helvetica,sans-Serif" font-size="14.00">PK swap_id </text>
<text xml:space="preserve" text-anchor="start" x="1131.38" y="-269.95" font-family="Helvetica,sans-Serif" font-size="14.00" fill="#999999">int() NOT NULL</text>
<polygon fill="none" stroke="black" points="1050.38,-232.75 1050.38,-260.5 1267.12,-260.5 1267.12,-232.75 1050.38,-232.75"/>
<text xml:space="preserve" text-anchor="start" x="1056.38" y="-242.2" font-family="Helvetica,sans-Serif" font-size="14.00">FK employee1_id </text>
<text xml:space="preserve" text-anchor="start" x="1165.88" y="-242.2" font-family="Helvetica,sans-Serif" font-size="14.00" fill="#999999">int() NOT NULL</text>
<polygon fill="none" stroke="black" points="1050.38,-205 1050.38,-232.75 1267.12,-232.75 1267.12,-205 1050.38,-205"/>
<text xml:space="preserve" text-anchor="start" x="1056.38" y="-214.45" font-family="Helvetica,sans-Serif" font-size="14.00">FK employee2_id </text>
<text xml:space="preserve" text-anchor="start" x="1165.88" y="-214.45" font-family="Helvetica,sans-Serif" font-size="14.00" fill="#999999">int() NOT NULL</text>
<polygon fill="none" stroke="black" points="1050.38,-177.25 1050.38,-205 1267.12,-205 1267.12,-177.25 1050.38,-177.25"/>
<text xml:space="preserve" text-anchor="start" x="1056.38" y="-186.7" font-family="Helvetica,sans-Serif" font-size="14.00">FK coordinator_id </text>
<text xml:space="preserve" text-anchor="start" x="1166.62" y="-186.7" font-family="Helvetica,sans-Serif" font-size="14.00" fill="#999999">int() NOT NULL</text>
<polygon fill="none" stroke="black" points="1050.38,-149.5 1050.38,-177.25 1267.12,-177.25 1267.12,-149.5 1050.38,-149.5"/>
<text xml:space="preserve" text-anchor="start" x="1056.38" y="-158.95" font-family="Helvetica,sans-Serif" font-size="14.00">justification </text>
<text xml:space="preserve" text-anchor="start" x="1126.88" y="-158.95" font-family="Helvetica,sans-Serif" font-size="14.00" fill="#999999">text</text>
<polygon fill="none" stroke="black" points="1050.38,-121.75 1050.38,-149.5 1267.12,-149.5 1267.12,-121.75 1050.38,-121.75"/>
<text xml:space="preserve" text-anchor="start" x="1056.38" y="-131.2" font-family="Helvetica,sans-Serif" font-size="14.00">swap_date </text>
<text xml:space="preserve" text-anchor="start" x="1125.38" y="-131.2" font-family="Helvetica,sans-Serif" font-size="14.00" fill="#999999">date() NOT NULL</text>
</g>
<!-- ShiftSwap&#45;&gt;Employee -->
<g id="edge10" class="edge">
<title>ShiftSwap:employee1_id&#45;&gt;Employee:person_id</title>
<path fill="none" stroke="black" d="M1276.9,-246.71C1283.74,-246.85 1288.33,-247.13 1295.08,-247.28"/>
<polyline fill="none" stroke="black" points="1268.12,-246.62 1272.62,-246.67"/>
<polygon fill="black" stroke="black" points="1273.48,-251.18 1273.57,-242.18 1275.37,-242.2 1275.28,-251.2 1273.48,-251.18"/>
<polyline fill="none" stroke="black" points="1272.62,-246.67 1277.12,-246.71"/>
<polygon fill="black" stroke="black" points="1294.92,-247.28 1303.87,-251.42 1299.75,-247.33 1303.58,-247.37 1303.58,-247.37 1303.58,-247.37 1299.75,-247.33 1303.96,-243.32 1294.92,-247.28"/>
</g>
<!-- ShiftSwap&#45;&gt;Employee -->
<g id="edge11" class="edge">
<title>ShiftSwap:employee2_id&#45;&gt;Employee:person_id</title>
<path fill="none" stroke="black" d="M1276.69,-221.11C1285.28,-226.36 1286.93,-239.44 1295.32,-244.91"/>
<polyline fill="none" stroke="black" points="1268.12,-218.88 1272.48,-220.01"/>
<polygon fill="black" stroke="black" points="1272.21,-224.59 1274.49,-215.89 1276.23,-216.34 1273.95,-225.05 1272.21,-224.59"/>
<polyline fill="none" stroke="black" points="1272.48,-220.01 1276.83,-221.15"/>
<polygon fill="black" stroke="black" points="1295.25,-244.89 1302.85,-251.19 1299.91,-246.18 1303.61,-247.2 1303.61,-247.2 1303.61,-247.2 1299.91,-246.18 1305.01,-243.38 1295.25,-244.89"/>
</g>
<!-- ShiftSwap&#45;&gt;Employee -->
<g id="edge12" class="edge">
<title>ShiftSwap:coordinator_id&#45;&gt;Employee:person_id</title>
<path fill="none" stroke="black" d="M1276.56,-193.26C1290.78,-202.09 1281.64,-235.71 1295.43,-244.99"/>
<polyline fill="none" stroke="black" points="1268.12,-191.12 1272.49,-192.23"/>
<polygon fill="black" stroke="black" points="1272.25,-196.81 1274.46,-188.09 1276.21,-188.53 1274,-197.26 1272.25,-196.81"/>
<polyline fill="none" stroke="black" points="1272.49,-192.23 1276.85,-193.34"/>
<polygon fill="black" stroke="black" points="1295.24,-244.94 1302.87,-251.2 1299.91,-246.2 1303.6,-247.2 1303.6,-247.2 1303.6,-247.2 1299.91,-246.2 1304.98,-243.38 1295.24,-244.94"/>
</g>
<!-- PatientMovement&#45;&gt;Department -->
<g id="edge14" class="edge">
<title>PatientMovement:department_id&#45;&gt;Department:department_id</title>
<path fill="none" stroke="black" d="M1021.63,-711.72C1032.55,-704.5 1029.85,-682.15 1040.25,-674.34"/>
<polyline fill="none" stroke="black" points="1013.25,-714 1017.59,-712.82"/>
<polygon fill="black" stroke="black" points="1019.64,-716.92 1017.28,-708.24 1019.02,-707.77 1021.38,-716.45 1019.64,-716.92"/>
<polyline fill="none" stroke="black" points="1017.59,-712.82 1021.93,-711.64"/>
<polygon fill="black" stroke="black" points="1040.31,-674.32 1050.1,-675.6 1044.94,-672.93 1048.61,-671.82 1048.61,-671.82 1048.61,-671.82 1044.94,-672.93 1047.76,-667.84 1040.31,-674.32"/>
</g>
<!-- AccessLog -->
<g id="node13" class="node">
<title>AccessLog</title>
<polygon fill="none" stroke="black" points="0,-1040.25 0,-1062 231,-1062 231,-1040.25 0,-1040.25"/>
<text xml:space="preserve" text-anchor="start" x="82.5" y="-1046.7" font-family="Helvetica,sans-Serif" font-style="italic" font-size="14.00">AccessLog</text>
<polygon fill="none" stroke="black" points="0,-1012.5 0,-1040.25 231,-1040.25 231,-1012.5 0,-1012.5"/>
<text xml:space="preserve" text-anchor="start" x="6" y="-1021.95" font-family="Helvetica,sans-Serif" font-size="14.00">PK log_id </text>
<text xml:space="preserve" text-anchor="start" x="67.5" y="-1021.95" font-family="Helvetica,sans-Serif" font-size="14.00" fill="#999999">int() NOT NULL</text>
<polygon fill="none" stroke="black" points="0,-984.75 0,-1012.5 231,-1012.5 231,-984.75 0,-984.75"/>
<text xml:space="preserve" text-anchor="start" x="6" y="-994.2" font-family="Helvetica,sans-Serif" font-size="14.00">FK person_id </text>
<text xml:space="preserve" text-anchor="start" x="90" y="-994.2" font-family="Helvetica,sans-Serif" font-size="14.00" fill="#999999">int() NOT NULL</text>
<polygon fill="none" stroke="black" points="0,-957 0,-984.75 231,-984.75 231,-957 0,-957"/>
<text xml:space="preserve" text-anchor="start" x="6" y="-966.45" font-family="Helvetica,sans-Serif" font-size="14.00">FK department_id </text>
<text xml:space="preserve" text-anchor="start" x="117.75" y="-966.45" font-family="Helvetica,sans-Serif" font-size="14.00" fill="#999999">int() NOT NULL</text>
<polygon fill="none" stroke="black" points="0,-929.25 0,-957 231,-957 231,-929.25 0,-929.25"/>
<text xml:space="preserve" text-anchor="start" x="6" y="-938.7" font-family="Helvetica,sans-Serif" font-size="14.00">entry_time </text>
<text xml:space="preserve" text-anchor="start" x="73.5" y="-938.7" font-family="Helvetica,sans-Serif" font-size="14.00" fill="#999999">timestamp NOT NULL</text>
<polygon fill="none" stroke="black" points="0,-901.5 0,-929.25 231,-929.25 231,-901.5 0,-901.5"/>
<text xml:space="preserve" text-anchor="start" x="6" y="-910.95" font-family="Helvetica,sans-Serif" font-size="14.00">exit_time </text>
<text xml:space="preserve" text-anchor="start" x="64.5" y="-910.95" font-family="Helvetica,sans-Serif" font-size="14.00" fill="#999999">timestamp</text>
<polygon fill="none" stroke="black" points="0,-873.75 0,-901.5 231,-901.5 231,-873.75 0,-873.75"/>
<text xml:space="preserve" text-anchor="start" x="6" y="-883.2" font-family="Helvetica,sans-Serif" font-size="14.00">access_type </text>
<text xml:space="preserve" text-anchor="start" x="84.75" y="-883.2" font-family="Helvetica,sans-Serif" font-size="14.00" fill="#999999">varchar(50) NOT NULL</text>
</g>
<!-- AccessLog&#45;&gt;Department -->
<g id="edge16" class="edge">
<title>AccessLog:department_id&#45;&gt;Department:department_id</title>
<path fill="none" stroke="black" d="M239.89,-971.05C393.39,-977.06 373.68,-1139.57 525.75,-1189.88 624.17,-1222.44 667.17,-1237.97 759,-1189.88 934.78,-1097.81 932.38,-1004.08 1013.25,-822.88 1040.04,-762.85 985.92,-680.17 1040.03,-672.24"/>
<polyline fill="none" stroke="black" points="231,-970.88 235.5,-970.96"/>
<polygon fill="black" stroke="black" points="236.31,-975.48 236.49,-966.48 238.29,-966.51 238.11,-975.51 236.31,-975.48"/>
<polyline fill="none" stroke="black" points="235.5,-970.96 240,-971.05"/>
<polygon fill="black" stroke="black" points="1039.94,-672.25 1049.19,-675.69 1044.76,-671.93 1048.58,-671.67 1048.58,-671.67 1048.58,-671.67 1044.76,-671.93 1048.65,-667.61 1039.94,-672.25"/>
</g>
<!-- AccessLog&#45;&gt;Person -->
<g id="edge15" class="edge">
<title>AccessLog:person_id&#45;&gt;Person:person_id</title>
<path fill="none" stroke="black" d="M239.8,-997.55C284.69,-985.19 213.64,-869.62 257.76,-856.57"/>
<polyline fill="none" stroke="black" points="231,-998.62 235.47,-998.08"/>
<polygon fill="black" stroke="black" points="236.9,-1002.44 235.82,-993.51 237.6,-993.29 238.69,-1002.22 236.9,-1002.44"/>
<polyline fill="none" stroke="black" points="235.47,-998.08 239.93,-997.54"/>
<polygon fill="black" stroke="black" points="257.74,-856.57 267.19,-859.43 262.54,-855.95 266.34,-855.46 266.34,-855.46 266.34,-855.46 262.54,-855.95 266.15,-851.4 257.74,-856.57"/>
</g>
</g>
</svg>
